<svg id="visual" viewBox="0 0 900 300" width="900" height="300" xmlns="http://www.w3.org/2000/svg" xmlns:xlink="http://www.w3.org/1999/xlink" version="1.1"><path d="M0 198L21.5 192.8C43 187.7 86 177.3 128.8 176.7C171.7 176 214.3 185 257.2 188.2C300 191.3 343 188.7 385.8 197.3C428.7 206 471.3 226 514.2 231C557 236 600 226 642.8 212C685.7 198 728.3 180 771.2 183.7C814 187.3 857 212.7 878.5 225.3L900 238L900 0L878.5 0C857 0 814 0 771.2 0C728.3 0 685.7 0 642.8 0C600 0 557 0 514.2 0C471.3 0 428.7 0 385.8 0C343 0 300 0 257.2 0C214.3 0 171.7 0 128.8 0C86 0 43 0 21.5 0L0 0Z" fill="#4938c4"></path><path d="M0 137L21.5 134.2C43 131.3 86 125.7 128.8 136.8C171.7 148 214.3 176 257.2 177.8C300 179.7 343 155.3 385.8 152.7C428.7 150 471.3 169 514.2 176C557 183 600 178 642.8 166.8C685.7 155.7 728.3 138.3 771.2 136.3C814 134.3 857 147.7 878.5 154.3L900 161L900 0L878.5 0C857 0 814 0 771.2 0C728.3 0 685.7 0 642.8 0C600 0 557 0 514.2 0C471.3 0 428.7 0 385.8 0C343 0 300 0 257.2 0C214.3 0 171.7 0 128.8 0C86 0 43 0 21.5 0L0 0Z" fill="#7c35c7"></path><path d="M0 114L21.5 121.7C43 129.3 86 144.7 128.8 144.3C171.7 144 214.3 128 257.2 118.5C300 109 343 106 385.8 102.8C428.7 99.7 471.3 96.3 514.2 101.3C557 106.3 600 119.7 642.8 121.3C685.7 123 728.3 113 771.2 110.3C814 107.7 857 112.3 878.5 114.7L900 117L900 0L878.5 0C857 0 814 0 771.2 0C728.3 0 685.7 0 642.8 0C600 0 557 0 514.2 0C471.3 0 428.7 0 385.8 0C343 0 300 0 257.2 0C214.3 0 171.7 0 128.8 0C86 0 43 0 21.5 0L0 0Z" fill="#a530c7"></path><path d="M0 118L21.5 111.8C43 105.7 86 93.3 128.8 83.3C171.7 73.3 214.3 65.7 257.2 68.5C300 71.3 343 84.7 385.8 90.8C428.7 97 471.3 96 514.2 97.2C557 98.3 600 101.7 642.8 97.7C685.7 93.7 728.3 82.3 771.2 77C814 71.7 857 72.3 878.5 72.7L900 73L900 0L878.5 0C857 0 814 0 771.2 0C728.3 0 685.7 0 642.8 0C600 0 557 0 514.2 0C471.3 0 428.7 0 385.8 0C343 0 300 0 257.2 0C214.3 0 171.7 0 128.8 0C86 0 43 0 21.5 0L0 0Z" fill="#c92bc5"></path><path d="M0 66L21.5 60.7C43 55.3 86 44.7 128.8 37.8C171.7 31 214.3 28 257.2 32.8C300 37.7 343 50.3 385.8 53C428.7 55.7 471.3 48.3 514.2 46.2C557 44 600 47 642.8 45.8C685.7 44.7 728.3 39.3 771.2 43C814 46.7 857 59.3 878.5 65.7L900 72L900 0L878.5 0C857 0 814 0 771.2 0C728.3 0 685.7 0 642.8 0C600 0 557 0 514.2 0C471.3 0 428.7 0 385.8 0C343 0 300 0 257.2 0C214.3 0 171.7 0 128.8 0C86 0 43 0 21.5 0L0 0Z" fill="#e927c0"></path></svg>