<svg id="visual" viewBox="0 0 960 200" width="960" height="200" xmlns="http://www.w3.org/2000/svg" xmlns:xlink="http://www.w3.org/1999/xlink" version="1.1"><path d="M0 42L22.8 44.8C45.7 47.7 91.3 53.3 137 59.3C182.7 65.3 228.3 71.7 274 72C319.7 72.3 365.3 66.7 411.2 60.2C457 53.7 503 46.3 548.8 50.7C594.7 55 640.3 71 686 76.5C731.7 82 777.3 77 823 72C868.7 67 914.3 62 937.2 59.5L960 57L960 201L937.2 201C914.3 201 868.7 201 823 201C777.3 201 731.7 201 686 201C640.3 201 594.7 201 548.8 201C503 201 457 201 411.2 201C365.3 201 319.7 201 274 201C228.3 201 182.7 201 137 201C91.3 201 45.7 201 22.8 201L0 201Z" fill="#5be896"></path><path d="M0 66L22.8 67C45.7 68 91.3 70 137 78C182.7 86 228.3 100 274 104.2C319.7 108.3 365.3 102.7 411.2 101.7C457 100.7 503 104.3 548.8 107.7C594.7 111 640.3 114 686 113.3C731.7 112.7 777.3 108.3 823 102.2C868.7 96 914.3 88 937.2 84L960 80L960 201L937.2 201C914.3 201 868.7 201 823 201C777.3 201 731.7 201 686 201C640.3 201 594.7 201 548.8 201C503 201 457 201 411.2 201C365.3 201 319.7 201 274 201C228.3 201 182.7 201 137 201C91.3 201 45.7 201 22.8 201L0 201Z" fill="#00b2ac"></path><path d="M0 102L22.8 106.2C45.7 110.3 91.3 118.7 137 120.2C182.7 121.7 228.3 116.3 274 115.5C319.7 114.7 365.3 118.3 411.2 120.2C457 122 503 122 548.8 118.2C594.7 114.3 640.3 106.7 686 107.5C731.7 108.3 777.3 117.7 823 121C868.7 124.3 914.3 121.7 937.2 120.3L960 119L960 201L937.2 201C914.3 201 868.7 201 823 201C777.3 201 731.7 201 686 201C640.3 201 594.7 201 548.8 201C503 201 457 201 411.2 201C365.3 201 319.7 201 274 201C228.3 201 182.7 201 137 201C91.3 201 45.7 201 22.8 201L0 201Z" fill="#007892"></path><path d="M0 144L22.8 144C45.7 144 91.3 144 137 146.7C182.7 149.3 228.3 154.7 274 155.5C319.7 156.3 365.3 152.7 411.2 147.2C457 141.7 503 134.3 548.8 135.5C594.7 136.7 640.3 146.3 686 147.3C731.7 148.3 777.3 140.7 823 140C868.7 139.3 914.3 145.7 937.2 148.8L960 152L960 201L937.2 201C914.3 201 868.7 201 823 201C777.3 201 731.7 201 686 201C640.3 201 594.7 201 548.8 201C503 201 457 201 411.2 201C365.3 201 319.7 201 274 201C228.3 201 182.7 201 137 201C91.3 201 45.7 201 22.8 201L0 201Z" fill="#11425f"></path><path d="M0 180L22.8 175.7C45.7 171.3 91.3 162.7 137 161.2C182.7 159.7 228.3 165.3 274 164.8C319.7 164.3 365.3 157.7 411.2 157.3C457 157 503 163 548.8 168C594.7 173 640.3 177 686 176.2C731.7 175.3 777.3 169.7 823 167.5C868.7 165.3 914.3 166.7 937.2 167.3L960 168L960 201L937.2 201C914.3 201 868.7 201 823 201C777.3 201 731.7 201 686 201C640.3 201 594.7 201 548.8 201C503 201 457 201 411.2 201C365.3 201 319.7 201 274 201C228.3 201 182.7 201 137 201C91.3 201 45.7 201 22.8 201L0 201Z" fill="#0b1227"></path></svg>