<svg id="visual" viewBox="0 0 900 200" width="900" height="200" xmlns="http://www.w3.org/2000/svg" xmlns:xlink="http://www.w3.org/1999/xlink" version="1.1"><path d="M0 73L13.7 79.7C27.3 86.3 54.7 99.7 82 104C109.3 108.3 136.7 103.7 163.8 100.5C191 97.3 218 95.7 245.2 91.5C272.3 87.3 299.7 80.7 327 68.8C354.3 57 381.7 40 409 31.3C436.3 22.7 463.7 22.3 491 20.3C518.3 18.3 545.7 14.7 573 12C600.3 9.3 627.7 7.7 654.8 16.5C682 25.3 709 44.7 736.2 59.8C763.3 75 790.7 86 818 78.8C845.3 71.7 872.7 46.3 886.3 33.7L900 21L900 201L886.3 201C872.7 201 845.3 201 818 201C790.7 201 763.3 201 736.2 201C709 201 682 201 654.8 201C627.7 201 600.3 201 573 201C545.7 201 518.3 201 491 201C463.7 201 436.3 201 409 201C381.7 201 354.3 201 327 201C299.7 201 272.3 201 245.2 201C218 201 191 201 163.8 201C136.7 201 109.3 201 82 201C54.7 201 27.3 201 13.7 201L0 201Z" fill="#65e4a5"></path><path d="M0 96L13.7 91.3C27.3 86.7 54.7 77.3 82 74.5C109.3 71.7 136.7 75.3 163.8 78.5C191 81.7 218 84.3 245.2 77.8C272.3 71.3 299.7 55.7 327 50.3C354.3 45 381.7 50 409 55C436.3 60 463.7 65 491 69C518.3 73 545.7 76 573 87.2C600.3 98.3 627.7 117.7 654.8 116C682 114.3 709 91.7 736.2 76.5C763.3 61.3 790.7 53.7 818 56.7C845.3 59.7 872.7 73.3 886.3 80.2L900 87L900 201L886.3 201C872.7 201 845.3 201 818 201C790.7 201 763.3 201 736.2 201C709 201 682 201 654.8 201C627.7 201 600.3 201 573 201C545.7 201 518.3 201 491 201C463.7 201 436.3 201 409 201C381.7 201 354.3 201 327 201C299.7 201 272.3 201 245.2 201C218 201 191 201 163.8 201C136.7 201 109.3 201 82 201C54.7 201 27.3 201 13.7 201L0 201Z" fill="#00b9ac"></path><path d="M0 106L13.7 100.8C27.3 95.7 54.7 85.3 82 80.8C109.3 76.3 136.7 77.7 163.8 78.2C191 78.7 218 78.3 245.2 75.3C272.3 72.3 299.7 66.7 327 79C354.3 91.3 381.7 121.7 409 126.7C436.3 131.7 463.7 111.3 491 98.5C518.3 85.7 545.7 80.3 573 80.3C600.3 80.3 627.7 85.7 654.8 91.5C682 97.3 709 103.7 736.2 112.7C763.3 121.7 790.7 133.3 818 125.8C845.3 118.3 872.7 91.7 886.3 78.3L900 65L900 201L886.3 201C872.7 201 845.3 201 818 201C790.7 201 763.3 201 736.2 201C709 201 682 201 654.8 201C627.7 201 600.3 201 573 201C545.7 201 518.3 201 491 201C463.7 201 436.3 201 409 201C381.7 201 354.3 201 327 201C299.7 201 272.3 201 245.2 201C218 201 191 201 163.8 201C136.7 201 109.3 201 82 201C54.7 201 27.3 201 13.7 201L0 201Z" fill="#008c9e"></path><path d="M0 137L13.7 133.3C27.3 129.7 54.7 122.3 82 114.7C109.3 107 136.7 99 163.8 107.8C191 116.7 218 142.3 245.2 141.7C272.3 141 299.7 114 327 103C354.3 92 381.7 97 409 106.8C436.3 116.7 463.7 131.3 491 132.7C518.3 134 545.7 122 573 123.3C600.3 124.7 627.7 139.3 654.8 137.7C682 136 709 118 736.2 110.5C763.3 103 790.7 106 818 105.7C845.3 105.3 872.7 101.7 886.3 99.8L900 98L900 201L886.3 201C872.7 201 845.3 201 818 201C790.7 201 763.3 201 736.2 201C709 201 682 201 654.8 201C627.7 201 600.3 201 573 201C545.7 201 518.3 201 491 201C463.7 201 436.3 201 409 201C381.7 201 354.3 201 327 201C299.7 201 272.3 201 245.2 201C218 201 191 201 163.8 201C136.7 201 109.3 201 82 201C54.7 201 27.3 201 13.7 201L0 201Z" fill="#075f7b"></path><path d="M0 117L13.7 119.7C27.3 122.3 54.7 127.7 82 137C109.3 146.3 136.7 159.7 163.8 157.7C191 155.7 218 138.3 245.2 135.2C272.3 132 299.7 143 327 150.5C354.3 158 381.7 162 409 164.8C436.3 167.7 463.7 169.3 491 169C518.3 168.7 545.7 166.3 573 164.8C600.3 163.3 627.7 162.7 654.8 161C682 159.3 709 156.7 736.2 160.3C763.3 164 790.7 174 818 173C845.3 172 872.7 160 886.3 154L900 148L900 201L886.3 201C872.7 201 845.3 201 818 201C790.7 201 763.3 201 736.2 201C709 201 682 201 654.8 201C627.7 201 600.3 201 573 201C545.7 201 518.3 201 491 201C463.7 201 436.3 201 409 201C381.7 201 354.3 201 327 201C299.7 201 272.3 201 245.2 201C218 201 191 201 163.8 201C136.7 201 109.3 201 82 201C54.7 201 27.3 201 13.7 201L0 201Z" fill="#113652"></path><path d="M0 167L13.7 172.2C27.3 177.3 54.7 187.7 82 191.3C109.3 195 136.7 192 163.8 189.8C191 187.7 218 186.3 245.2 183.8C272.3 181.3 299.7 177.7 327 177.5C354.3 177.3 381.7 180.7 409 182.7C436.3 184.7 463.7 185.3 491 178.8C518.3 172.3 545.7 158.7 573 154.8C600.3 151 627.7 157 654.8 159.5C682 162 709 161 736.2 161.3C763.3 161.7 790.7 163.3 818 161.8C845.3 160.3 872.7 155.7 886.3 153.3L900 151L900 201L886.3 201C872.7 201 845.3 201 818 201C790.7 201 763.3 201 736.2 201C709 201 682 201 654.8 201C627.7 201 600.3 201 573 201C545.7 201 518.3 201 491 201C463.7 201 436.3 201 409 201C381.7 201 354.3 201 327 201C299.7 201 272.3 201 245.2 201C218 201 191 201 163.8 201C136.7 201 109.3 201 82 201C54.7 201 27.3 201 13.7 201L0 201Z" fill="#0b1227"></path></svg>