<svg xmlns="http://www.w3.org/2000/svg" xmlns:xlink="http://www.w3.org/1999/xlink" width="960" zoomAndPan="magnify" viewBox="0 0 720 149.999998" height="200" preserveAspectRatio="xMidYMid meet" version="1.0"><defs><clipPath id="227a4f782f"><path d="M 0 3 L 719.6875 3 L 719.6875 150 L 0 150 Z M 0 3 " clip-rule="nonzero"/></clipPath><clipPath id="c92b02b28e"><path d="M 0 19 L 719.6875 19 L 719.6875 150 L 0 150 Z M 0 19 " clip-rule="nonzero"/></clipPath><clipPath id="2058d54531"><path d="M 0 30 L 719.6875 30 L 719.6875 150 L 0 150 Z M 0 30 " clip-rule="nonzero"/></clipPath><clipPath id="10e8995b82"><path d="M 0 39 L 719.6875 39 L 719.6875 150 L 0 150 Z M 0 39 " clip-rule="nonzero"/></clipPath><clipPath id="a595de913e"><path d="M 0 43 L 719.6875 43 L 719.6875 150 L 0 150 Z M 0 43 " clip-rule="nonzero"/></clipPath><clipPath id="b149780764"><path d="M 0 53 L 719.6875 53 L 719.6875 150 L 0 150 Z M 0 53 " clip-rule="nonzero"/></clipPath><clipPath id="ecf7c67fbd"><path d="M 0 69 L 719.6875 69 L 719.6875 150 L 0 150 Z M 0 69 " clip-rule="nonzero"/></clipPath><clipPath id="ee440dc0fa"><path d="M 0 80 L 719.6875 80 L 719.6875 150 L 0 150 Z M 0 80 " clip-rule="nonzero"/></clipPath><clipPath id="f9208a0b91"><path d="M 0 91 L 719.6875 91 L 719.6875 150 L 0 150 Z M 0 91 " clip-rule="nonzero"/></clipPath><clipPath id="530068155a"><path d="M 0 106 L 719.6875 106 L 719.6875 150 L 0 150 Z M 0 106 " clip-rule="nonzero"/></clipPath><clipPath id="cd1a54ee5e"><path d="M 0 119 L 719.6875 119 L 719.6875 150 L 0 150 Z M 0 119 " clip-rule="nonzero"/></clipPath><clipPath id="a42b4a2db7"><path d="M 0 128 L 719.6875 128 L 719.6875 150 L 0 150 Z M 0 128 " clip-rule="nonzero"/></clipPath></defs><g clip-path="url(#227a4f782f)"><path fill="#b541e8" d="M -1.058594 23.253906 L 5.921875 30.15625 C 12.980469 36.980469 26.945312 50.78125 41.136719 59.105469 C 55.25 67.503906 69.515625 70.503906 83.628906 60.605469 C 97.820312 50.78125 111.78125 27.980469 125.972656 19.28125 C 140.085938 10.503906 154.351562 15.753906 168.464844 15.378906 C 182.65625 15.003906 196.621094 9.003906 210.808594 10.65625 C 224.925781 12.230469 239.191406 21.53125 253.304688 32.03125 C 267.492188 42.53125 281.457031 54.230469 295.648438 62.40625 C 309.761719 70.503906 324.027344 75.003906 338.140625 66.230469 C 352.332031 57.53125 366.296875 35.480469 380.484375 21.378906 C 394.601562 7.28125 408.863281 0.980469 422.980469 11.78125 C 437.167969 22.503906 451.132812 50.253906 465.324219 50.628906 C 479.4375 51.003906 493.703125 24.003906 507.816406 15.605469 C 522.007812 7.28125 535.972656 17.480469 550.160156 25.128906 C 564.277344 32.78125 578.539062 37.730469 592.65625 42.53125 C 606.84375 47.253906 620.808594 51.753906 635 51.003906 C 649.113281 50.253906 663.378906 44.253906 677.492188 35.480469 C 691.683594 26.78125 705.648438 15.230469 712.703125 9.53125 L 719.6875 3.753906 L 719.6875 151.503906 L 712.703125 151.503906 C 705.648438 151.503906 691.683594 151.503906 677.492188 151.503906 C 663.378906 151.503906 649.113281 151.503906 635 151.503906 C 620.808594 151.503906 606.84375 151.503906 592.65625 151.503906 C 578.539062 151.503906 564.277344 151.503906 550.160156 151.503906 C 535.972656 151.503906 522.007812 151.503906 507.816406 151.503906 C 493.703125 151.503906 479.4375 151.503906 465.324219 151.503906 C 451.132812 151.503906 437.167969 151.503906 422.980469 151.503906 C 408.863281 151.503906 394.601562 151.503906 380.484375 151.503906 C 366.296875 151.503906 352.332031 151.503906 338.140625 151.503906 C 324.027344 151.503906 309.761719 151.503906 295.648438 151.503906 C 281.457031 151.503906 267.492188 151.503906 253.304688 151.503906 C 239.191406 151.503906 224.925781 151.503906 210.808594 151.503906 C 196.621094 151.503906 182.65625 151.503906 168.464844 151.503906 C 154.351562 151.503906 140.085938 151.503906 125.972656 151.503906 C 111.78125 151.503906 97.820312 151.503906 83.628906 151.503906 C 69.515625 151.503906 55.25 151.503906 41.136719 151.503906 C 26.945312 151.503906 12.980469 151.503906 5.921875 151.503906 L -1.058594 151.503906 Z M -1.058594 23.253906 " fill-opacity="1" fill-rule="nonzero"/></g><g clip-path="url(#c92b02b28e)"><path fill="#ac40e5" d="M -1.058594 21.753906 L 5.921875 32.105469 C 12.980469 42.53125 26.945312 63.230469 41.136719 68.03125 C 55.25 72.753906 69.515625 61.503906 83.628906 51.53125 C 97.820312 41.480469 111.78125 32.78125 125.972656 36.980469 C 140.085938 41.253906 154.351562 58.503906 168.464844 57.90625 C 182.65625 57.230469 196.621094 38.78125 210.808594 39.003906 C 224.925781 39.230469 239.191406 58.28125 253.304688 69.230469 C 267.492188 80.253906 281.457031 83.253906 295.648438 82.28125 C 309.761719 81.230469 324.027344 76.28125 338.140625 74.40625 C 352.332031 72.53125 366.296875 73.730469 380.484375 67.28125 C 394.601562 60.753906 408.863281 46.503906 422.980469 47.628906 C 437.167969 48.753906 451.132812 65.253906 465.324219 66.605469 C 479.4375 68.03125 493.703125 54.230469 507.816406 44.253906 C 522.007812 34.28125 535.972656 27.980469 550.160156 23.628906 C 564.277344 19.28125 578.539062 16.730469 592.65625 26.855469 C 606.84375 36.980469 620.808594 59.78125 635 63.90625 C 649.113281 68.03125 663.378906 53.480469 677.492188 50.480469 C 691.683594 47.480469 705.648438 56.03125 712.703125 60.230469 L 719.6875 64.503906 L 719.6875 151.503906 L 712.703125 151.503906 C 705.648438 151.503906 691.683594 151.503906 677.492188 151.503906 C 663.378906 151.503906 649.113281 151.503906 635 151.503906 C 620.808594 151.503906 606.84375 151.503906 592.65625 151.503906 C 578.539062 151.503906 564.277344 151.503906 550.160156 151.503906 C 535.972656 151.503906 522.007812 151.503906 507.816406 151.503906 C 493.703125 151.503906 479.4375 151.503906 465.324219 151.503906 C 451.132812 151.503906 437.167969 151.503906 422.980469 151.503906 C 408.863281 151.503906 394.601562 151.503906 380.484375 151.503906 C 366.296875 151.503906 352.332031 151.503906 338.140625 151.503906 C 324.027344 151.503906 309.761719 151.503906 295.648438 151.503906 C 281.457031 151.503906 267.492188 151.503906 253.304688 151.503906 C 239.191406 151.503906 224.925781 151.503906 210.808594 151.503906 C 196.621094 151.503906 182.65625 151.503906 168.464844 151.503906 C 154.351562 151.503906 140.085938 151.503906 125.972656 151.503906 C 111.78125 151.503906 97.820312 151.503906 83.628906 151.503906 C 69.515625 151.503906 55.25 151.503906 41.136719 151.503906 C 26.945312 151.503906 12.980469 151.503906 5.921875 151.503906 L -1.058594 151.503906 Z M -1.058594 21.753906 " fill-opacity="1" fill-rule="nonzero"/></g><g clip-path="url(#2058d54531)"><path fill="#a340e2" d="M -1.058594 32.253906 L 5.921875 39.378906 C 12.980469 46.503906 26.945312 60.753906 41.136719 67.878906 C 55.25 75.003906 69.515625 75.003906 83.628906 75.605469 C 97.820312 76.28125 111.78125 77.480469 125.972656 74.253906 C 140.085938 71.03125 154.351562 63.230469 168.464844 64.355469 C 182.65625 65.480469 196.621094 75.53125 210.808594 71.78125 C 224.925781 68.03125 239.191406 50.480469 253.304688 42.753906 C 267.492188 35.03125 281.457031 36.980469 295.648438 36.53125 C 309.761719 36.003906 324.027344 33.003906 338.140625 39.605469 C 352.332031 46.28125 366.296875 62.480469 380.484375 60.753906 C 394.601562 59.03125 408.863281 39.230469 422.980469 32.78125 C 437.167969 26.253906 451.132812 33.003906 465.324219 43.28125 C 479.4375 53.480469 493.703125 67.28125 507.816406 69.980469 C 522.007812 72.753906 535.972656 64.503906 550.160156 57.90625 C 564.277344 51.230469 578.539062 46.28125 592.65625 39.980469 C 606.84375 33.753906 620.808594 26.253906 635 34.128906 C 649.113281 42.003906 663.378906 65.253906 677.492188 67.128906 C 691.683594 69.003906 705.648438 49.503906 712.703125 39.753906 L 719.6875 30.003906 L 719.6875 151.503906 L 712.703125 151.503906 C 705.648438 151.503906 691.683594 151.503906 677.492188 151.503906 C 663.378906 151.503906 649.113281 151.503906 635 151.503906 C 620.808594 151.503906 606.84375 151.503906 592.65625 151.503906 C 578.539062 151.503906 564.277344 151.503906 550.160156 151.503906 C 535.972656 151.503906 522.007812 151.503906 507.816406 151.503906 C 493.703125 151.503906 479.4375 151.503906 465.324219 151.503906 C 451.132812 151.503906 437.167969 151.503906 422.980469 151.503906 C 408.863281 151.503906 394.601562 151.503906 380.484375 151.503906 C 366.296875 151.503906 352.332031 151.503906 338.140625 151.503906 C 324.027344 151.503906 309.761719 151.503906 295.648438 151.503906 C 281.457031 151.503906 267.492188 151.503906 253.304688 151.503906 C 239.191406 151.503906 224.925781 151.503906 210.808594 151.503906 C 196.621094 151.503906 182.65625 151.503906 168.464844 151.503906 C 154.351562 151.503906 140.085938 151.503906 125.972656 151.503906 C 111.78125 151.503906 97.820312 151.503906 83.628906 151.503906 C 69.515625 151.503906 55.25 151.503906 41.136719 151.503906 C 26.945312 151.503906 12.980469 151.503906 5.921875 151.503906 L -1.058594 151.503906 Z M -1.058594 32.253906 " fill-opacity="1" fill-rule="nonzero"/></g><g clip-path="url(#10e8995b82)"><path fill="#993fdf" d="M -1.058594 97.503906 L 5.921875 87.980469 C 12.980469 78.53125 26.945312 59.480469 41.136719 48.980469 C 55.25 38.480469 69.515625 36.53125 83.628906 44.40625 C 97.820312 52.28125 111.78125 69.980469 125.972656 70.355469 C 140.085938 70.730469 154.351562 53.78125 168.464844 53.480469 C 182.65625 53.253906 196.621094 69.753906 210.808594 79.878906 C 224.925781 90.003906 239.191406 93.753906 253.304688 93.15625 C 267.492188 92.480469 281.457031 87.53125 295.648438 78.230469 C 309.761719 69.003906 324.027344 55.503906 338.140625 56.253906 C 352.332031 57.003906 366.296875 72.003906 380.484375 76.878906 C 394.601562 81.753906 408.863281 76.503906 422.980469 68.03125 C 437.167969 59.480469 451.132812 47.78125 465.324219 48.605469 C 479.4375 49.503906 493.703125 63.003906 507.816406 66.003906 C 522.007812 69.003906 535.972656 61.503906 550.160156 61.28125 C 564.277344 60.980469 578.539062 68.03125 592.65625 68.03125 C 606.84375 68.03125 620.808594 60.980469 635 55.65625 C 649.113281 50.253906 663.378906 46.503906 677.492188 46.355469 C 691.683594 46.28125 705.648438 49.730469 712.703125 51.53125 L 719.6875 53.253906 L 719.6875 151.503906 L 712.703125 151.503906 C 705.648438 151.503906 691.683594 151.503906 677.492188 151.503906 C 663.378906 151.503906 649.113281 151.503906 635 151.503906 C 620.808594 151.503906 606.84375 151.503906 592.65625 151.503906 C 578.539062 151.503906 564.277344 151.503906 550.160156 151.503906 C 535.972656 151.503906 522.007812 151.503906 507.816406 151.503906 C 493.703125 151.503906 479.4375 151.503906 465.324219 151.503906 C 451.132812 151.503906 437.167969 151.503906 422.980469 151.503906 C 408.863281 151.503906 394.601562 151.503906 380.484375 151.503906 C 366.296875 151.503906 352.332031 151.503906 338.140625 151.503906 C 324.027344 151.503906 309.761719 151.503906 295.648438 151.503906 C 281.457031 151.503906 267.492188 151.503906 253.304688 151.503906 C 239.191406 151.503906 224.925781 151.503906 210.808594 151.503906 C 196.621094 151.503906 182.65625 151.503906 168.464844 151.503906 C 154.351562 151.503906 140.085938 151.503906 125.972656 151.503906 C 111.78125 151.503906 97.820312 151.503906 83.628906 151.503906 C 69.515625 151.503906 55.25 151.503906 41.136719 151.503906 C 26.945312 151.503906 12.980469 151.503906 5.921875 151.503906 L -1.058594 151.503906 Z M -1.058594 97.503906 " fill-opacity="1" fill-rule="nonzero"/></g><g clip-path="url(#a595de913e)"><path fill="#903edc" d="M -1.058594 81.753906 L 5.921875 83.628906 C 12.980469 85.503906 26.945312 89.253906 41.136719 88.878906 C 55.25 88.503906 69.515625 84.003906 83.628906 81.980469 C 97.820312 80.03125 111.78125 80.480469 125.972656 75.53125 C 140.085938 70.503906 154.351562 60.003906 168.464844 55.878906 C 182.65625 51.753906 196.621094 54.003906 210.808594 57.230469 C 224.925781 60.53125 239.191406 64.730469 253.304688 69.230469 C 267.492188 73.730469 281.457031 78.53125 295.648438 75.230469 C 309.761719 72.003906 324.027344 60.753906 338.140625 59.480469 C 352.332031 58.28125 366.296875 66.980469 380.484375 75.90625 C 394.601562 84.753906 408.863281 93.753906 422.980469 92.40625 C 437.167969 90.980469 451.132812 79.28125 465.324219 73.128906 C 479.4375 66.980469 493.703125 66.53125 507.816406 64.355469 C 522.007812 62.253906 535.972656 58.503906 550.160156 60.230469 C 564.277344 62.03125 578.539062 69.230469 592.65625 67.355469 C 606.84375 65.480469 620.808594 54.53125 635 57.980469 C 649.113281 61.503906 663.378906 79.503906 677.492188 79.503906 C 691.683594 79.503906 705.648438 61.503906 712.703125 52.503906 L 719.6875 43.503906 L 719.6875 151.503906 L 712.703125 151.503906 C 705.648438 151.503906 691.683594 151.503906 677.492188 151.503906 C 663.378906 151.503906 649.113281 151.503906 635 151.503906 C 620.808594 151.503906 606.84375 151.503906 592.65625 151.503906 C 578.539062 151.503906 564.277344 151.503906 550.160156 151.503906 C 535.972656 151.503906 522.007812 151.503906 507.816406 151.503906 C 493.703125 151.503906 479.4375 151.503906 465.324219 151.503906 C 451.132812 151.503906 437.167969 151.503906 422.980469 151.503906 C 408.863281 151.503906 394.601562 151.503906 380.484375 151.503906 C 366.296875 151.503906 352.332031 151.503906 338.140625 151.503906 C 324.027344 151.503906 309.761719 151.503906 295.648438 151.503906 C 281.457031 151.503906 267.492188 151.503906 253.304688 151.503906 C 239.191406 151.503906 224.925781 151.503906 210.808594 151.503906 C 196.621094 151.503906 182.65625 151.503906 168.464844 151.503906 C 154.351562 151.503906 140.085938 151.503906 125.972656 151.503906 C 111.78125 151.503906 97.820312 151.503906 83.628906 151.503906 C 69.515625 151.503906 55.25 151.503906 41.136719 151.503906 C 26.945312 151.503906 12.980469 151.503906 5.921875 151.503906 L -1.058594 151.503906 Z M -1.058594 81.753906 " fill-opacity="1" fill-rule="nonzero"/></g><g clip-path="url(#b149780764)"><path fill="#873dd9" d="M -1.058594 53.253906 L 5.921875 62.253906 C 12.980469 71.253906 26.945312 89.253906 41.136719 95.40625 C 55.25 101.480469 69.515625 95.78125 83.628906 94.128906 C 97.820312 92.480469 111.78125 95.03125 125.972656 94.65625 C 140.085938 94.28125 154.351562 90.980469 168.464844 86.03125 C 182.65625 81.003906 196.621094 74.253906 210.808594 76.730469 C 224.925781 79.28125 239.191406 90.980469 253.304688 95.40625 C 267.492188 99.753906 281.457031 96.753906 295.648438 96.605469 C 309.761719 96.53125 324.027344 99.230469 338.140625 99.003906 C 352.332031 98.78125 366.296875 95.480469 380.484375 89.03125 C 394.601562 82.503906 408.863281 72.753906 422.980469 66.53125 C 437.167969 60.230469 451.132812 57.53125 465.324219 55.878906 C 479.4375 54.230469 493.703125 53.78125 507.816406 60.003906 C 522.007812 66.230469 535.972656 79.28125 550.160156 79.28125 C 564.277344 79.28125 578.539062 66.230469 592.65625 63.980469 C 606.84375 61.730469 620.808594 70.28125 635 73.730469 C 649.113281 77.253906 663.378906 75.753906 677.492188 77.855469 C 691.683594 80.03125 705.648438 85.730469 712.703125 88.65625 L 719.6875 91.503906 L 719.6875 151.503906 L 712.703125 151.503906 C 705.648438 151.503906 691.683594 151.503906 677.492188 151.503906 C 663.378906 151.503906 649.113281 151.503906 635 151.503906 C 620.808594 151.503906 606.84375 151.503906 592.65625 151.503906 C 578.539062 151.503906 564.277344 151.503906 550.160156 151.503906 C 535.972656 151.503906 522.007812 151.503906 507.816406 151.503906 C 493.703125 151.503906 479.4375 151.503906 465.324219 151.503906 C 451.132812 151.503906 437.167969 151.503906 422.980469 151.503906 C 408.863281 151.503906 394.601562 151.503906 380.484375 151.503906 C 366.296875 151.503906 352.332031 151.503906 338.140625 151.503906 C 324.027344 151.503906 309.761719 151.503906 295.648438 151.503906 C 281.457031 151.503906 267.492188 151.503906 253.304688 151.503906 C 239.191406 151.503906 224.925781 151.503906 210.808594 151.503906 C 196.621094 151.503906 182.65625 151.503906 168.464844 151.503906 C 154.351562 151.503906 140.085938 151.503906 125.972656 151.503906 C 111.78125 151.503906 97.820312 151.503906 83.628906 151.503906 C 69.515625 151.503906 55.25 151.503906 41.136719 151.503906 C 26.945312 151.503906 12.980469 151.503906 5.921875 151.503906 L -1.058594 151.503906 Z M -1.058594 53.253906 " fill-opacity="1" fill-rule="nonzero"/></g><g clip-path="url(#ecf7c67fbd)"><path fill="#7d3dd5" d="M -1.058594 69.753906 L 5.921875 74.40625 C 12.980469 78.980469 26.945312 88.28125 41.136719 89.40625 C 55.25 90.53125 69.515625 83.480469 83.628906 86.03125 C 97.820312 88.503906 111.78125 100.503906 125.972656 100.730469 C 140.085938 101.03125 154.351562 89.480469 168.464844 82.730469 C 182.65625 75.980469 196.621094 74.03125 210.808594 75.980469 C 224.925781 78.003906 239.191406 84.003906 253.304688 86.628906 C 267.492188 89.253906 281.457031 88.503906 295.648438 84.90625 C 309.761719 81.230469 324.027344 74.78125 338.140625 73.355469 C 352.332031 72.003906 366.296875 75.753906 380.484375 81.605469 C 394.601562 87.53125 408.863281 95.480469 422.980469 97.355469 C 437.167969 99.230469 451.132812 95.03125 465.324219 94.355469 C 479.4375 93.753906 493.703125 96.753906 507.816406 95.03125 C 522.007812 93.230469 535.972656 86.78125 550.160156 84.53125 C 564.277344 82.28125 578.539062 84.230469 592.65625 85.730469 C 606.84375 87.230469 620.808594 88.28125 635 90.003906 C 649.113281 91.730469 663.378906 94.28125 677.492188 91.28125 C 691.683594 88.28125 705.648438 79.730469 712.703125 75.53125 L 719.6875 71.253906 L 719.6875 151.503906 L 712.703125 151.503906 C 705.648438 151.503906 691.683594 151.503906 677.492188 151.503906 C 663.378906 151.503906 649.113281 151.503906 635 151.503906 C 620.808594 151.503906 606.84375 151.503906 592.65625 151.503906 C 578.539062 151.503906 564.277344 151.503906 550.160156 151.503906 C 535.972656 151.503906 522.007812 151.503906 507.816406 151.503906 C 493.703125 151.503906 479.4375 151.503906 465.324219 151.503906 C 451.132812 151.503906 437.167969 151.503906 422.980469 151.503906 C 408.863281 151.503906 394.601562 151.503906 380.484375 151.503906 C 366.296875 151.503906 352.332031 151.503906 338.140625 151.503906 C 324.027344 151.503906 309.761719 151.503906 295.648438 151.503906 C 281.457031 151.503906 267.492188 151.503906 253.304688 151.503906 C 239.191406 151.503906 224.925781 151.503906 210.808594 151.503906 C 196.621094 151.503906 182.65625 151.503906 168.464844 151.503906 C 154.351562 151.503906 140.085938 151.503906 125.972656 151.503906 C 111.78125 151.503906 97.820312 151.503906 83.628906 151.503906 C 69.515625 151.503906 55.25 151.503906 41.136719 151.503906 C 26.945312 151.503906 12.980469 151.503906 5.921875 151.503906 L -1.058594 151.503906 Z M -1.058594 69.753906 " fill-opacity="1" fill-rule="nonzero"/></g><g clip-path="url(#ee440dc0fa)"><path fill="#733cd2" d="M -1.058594 80.253906 L 5.921875 84.753906 C 12.980469 89.253906 26.945312 98.253906 41.136719 101.105469 C 55.25 104.03125 69.515625 100.730469 83.628906 102.230469 C 97.820312 103.730469 111.78125 110.03125 125.972656 108.53125 C 140.085938 107.03125 154.351562 97.730469 168.464844 93.753906 C 182.65625 89.78125 196.621094 90.980469 210.808594 89.855469 C 224.925781 88.730469 239.191406 85.28125 253.304688 89.105469 C 267.492188 93.003906 281.457031 104.253906 295.648438 108.230469 C 309.761719 112.28125 324.027344 108.980469 338.140625 102.753906 C 352.332031 96.53125 366.296875 87.230469 380.484375 88.128906 C 394.601562 89.03125 408.863281 99.980469 422.980469 101.105469 C 437.167969 102.230469 451.132812 93.53125 465.324219 90.90625 C 479.4375 88.28125 493.703125 91.730469 507.816406 90.753906 C 522.007812 89.78125 535.972656 84.230469 550.160156 84.90625 C 564.277344 85.503906 578.539062 92.253906 592.65625 95.855469 C 606.84375 99.53125 620.808594 99.980469 635 98.855469 C 649.113281 97.730469 663.378906 95.03125 677.492188 95.105469 C 691.683594 95.253906 705.648438 98.253906 712.703125 99.753906 L 719.6875 101.253906 L 719.6875 151.503906 L 712.703125 151.503906 C 705.648438 151.503906 691.683594 151.503906 677.492188 151.503906 C 663.378906 151.503906 649.113281 151.503906 635 151.503906 C 620.808594 151.503906 606.84375 151.503906 592.65625 151.503906 C 578.539062 151.503906 564.277344 151.503906 550.160156 151.503906 C 535.972656 151.503906 522.007812 151.503906 507.816406 151.503906 C 493.703125 151.503906 479.4375 151.503906 465.324219 151.503906 C 451.132812 151.503906 437.167969 151.503906 422.980469 151.503906 C 408.863281 151.503906 394.601562 151.503906 380.484375 151.503906 C 366.296875 151.503906 352.332031 151.503906 338.140625 151.503906 C 324.027344 151.503906 309.761719 151.503906 295.648438 151.503906 C 281.457031 151.503906 267.492188 151.503906 253.304688 151.503906 C 239.191406 151.503906 224.925781 151.503906 210.808594 151.503906 C 196.621094 151.503906 182.65625 151.503906 168.464844 151.503906 C 154.351562 151.503906 140.085938 151.503906 125.972656 151.503906 C 111.78125 151.503906 97.820312 151.503906 83.628906 151.503906 C 69.515625 151.503906 55.25 151.503906 41.136719 151.503906 C 26.945312 151.503906 12.980469 151.503906 5.921875 151.503906 L -1.058594 151.503906 Z M -1.058594 80.253906 " fill-opacity="1" fill-rule="nonzero"/></g><g clip-path="url(#f9208a0b91)"><path fill="#693bcf" d="M -1.058594 103.503906 L 5.921875 106.65625 C 12.980469 109.730469 26.945312 116.03125 41.136719 114.605469 C 55.25 113.253906 69.515625 104.253906 83.628906 98.78125 C 97.820312 93.230469 111.78125 91.28125 125.972656 91.503906 C 140.085938 91.730469 154.351562 94.28125 168.464844 94.730469 C 182.65625 95.253906 196.621094 93.753906 210.808594 95.855469 C 224.925781 98.03125 239.191406 103.730469 253.304688 108.15625 C 267.492188 112.503906 281.457031 115.503906 295.648438 113.628906 C 309.761719 111.753906 324.027344 105.003906 338.140625 102.003906 C 352.332031 99.003906 366.296875 99.753906 380.484375 100.503906 C 394.601562 101.253906 408.863281 102.003906 422.980469 103.730469 C 437.167969 105.53125 451.132812 108.230469 465.324219 107.78125 C 479.4375 107.253906 493.703125 103.503906 507.816406 101.480469 C 522.007812 99.53125 535.972656 99.230469 550.160156 102.378906 C 564.277344 105.53125 578.539062 111.980469 592.65625 114.90625 C 606.84375 117.753906 620.808594 117.003906 635 117.15625 C 649.113281 117.230469 663.378906 118.28125 677.492188 115.65625 C 691.683594 113.03125 705.648438 106.730469 712.703125 103.65625 L 719.6875 100.503906 L 719.6875 151.503906 L 712.703125 151.503906 C 705.648438 151.503906 691.683594 151.503906 677.492188 151.503906 C 663.378906 151.503906 649.113281 151.503906 635 151.503906 C 620.808594 151.503906 606.84375 151.503906 592.65625 151.503906 C 578.539062 151.503906 564.277344 151.503906 550.160156 151.503906 C 535.972656 151.503906 522.007812 151.503906 507.816406 151.503906 C 493.703125 151.503906 479.4375 151.503906 465.324219 151.503906 C 451.132812 151.503906 437.167969 151.503906 422.980469 151.503906 C 408.863281 151.503906 394.601562 151.503906 380.484375 151.503906 C 366.296875 151.503906 352.332031 151.503906 338.140625 151.503906 C 324.027344 151.503906 309.761719 151.503906 295.648438 151.503906 C 281.457031 151.503906 267.492188 151.503906 253.304688 151.503906 C 239.191406 151.503906 224.925781 151.503906 210.808594 151.503906 C 196.621094 151.503906 182.65625 151.503906 168.464844 151.503906 C 154.351562 151.503906 140.085938 151.503906 125.972656 151.503906 C 111.78125 151.503906 97.820312 151.503906 83.628906 151.503906 C 69.515625 151.503906 55.25 151.503906 41.136719 151.503906 C 26.945312 151.503906 12.980469 151.503906 5.921875 151.503906 L -1.058594 151.503906 Z M -1.058594 103.503906 " fill-opacity="1" fill-rule="nonzero"/></g><g clip-path="url(#530068155a)"><path fill="#5f3acb" d="M -1.058594 121.503906 L 5.921875 119.78125 C 12.980469 117.980469 26.945312 114.53125 41.136719 111.605469 C 55.25 108.753906 69.515625 106.503906 83.628906 106.503906 C 97.820312 106.503906 111.78125 108.753906 125.972656 108.980469 C 140.085938 109.28125 154.351562 107.480469 168.464844 109.128906 C 182.65625 110.78125 196.621094 115.730469 210.808594 118.65625 C 224.925781 121.503906 239.191406 122.253906 253.304688 121.65625 C 267.492188 120.980469 281.457031 119.03125 295.648438 115.878906 C 309.761719 112.730469 324.027344 108.53125 338.140625 109.503906 C 352.332031 110.480469 366.296875 116.78125 380.484375 116.628906 C 394.601562 116.480469 408.863281 110.03125 422.980469 108.15625 C 437.167969 106.28125 451.132812 108.980469 465.324219 112.878906 C 479.4375 116.78125 493.703125 121.730469 507.816406 121.878906 C 522.007812 122.03125 535.972656 117.230469 550.160156 117.003906 C 564.277344 116.78125 578.539062 120.980469 592.65625 123.753906 C 606.84375 126.53125 620.808594 127.730469 635 126.753906 C 649.113281 125.78125 663.378906 122.480469 677.492188 119.03125 C 691.683594 115.503906 705.648438 111.753906 712.703125 109.878906 L 719.6875 108.003906 L 719.6875 151.503906 L 712.703125 151.503906 C 705.648438 151.503906 691.683594 151.503906 677.492188 151.503906 C 663.378906 151.503906 649.113281 151.503906 635 151.503906 C 620.808594 151.503906 606.84375 151.503906 592.65625 151.503906 C 578.539062 151.503906 564.277344 151.503906 550.160156 151.503906 C 535.972656 151.503906 522.007812 151.503906 507.816406 151.503906 C 493.703125 151.503906 479.4375 151.503906 465.324219 151.503906 C 451.132812 151.503906 437.167969 151.503906 422.980469 151.503906 C 408.863281 151.503906 394.601562 151.503906 380.484375 151.503906 C 366.296875 151.503906 352.332031 151.503906 338.140625 151.503906 C 324.027344 151.503906 309.761719 151.503906 295.648438 151.503906 C 281.457031 151.503906 267.492188 151.503906 253.304688 151.503906 C 239.191406 151.503906 224.925781 151.503906 210.808594 151.503906 C 196.621094 151.503906 182.65625 151.503906 168.464844 151.503906 C 154.351562 151.503906 140.085938 151.503906 125.972656 151.503906 C 111.78125 151.503906 97.820312 151.503906 83.628906 151.503906 C 69.515625 151.503906 55.25 151.503906 41.136719 151.503906 C 26.945312 151.503906 12.980469 151.503906 5.921875 151.503906 L -1.058594 151.503906 Z M -1.058594 121.503906 " fill-opacity="1" fill-rule="nonzero"/></g><g clip-path="url(#cd1a54ee5e)"><path fill="#5439c8" d="M -1.058594 124.503906 L 5.921875 124.730469 C 12.980469 125.03125 26.945312 125.480469 41.136719 125.40625 C 55.25 125.253906 69.515625 124.503906 83.628906 123.15625 C 97.820312 121.730469 111.78125 119.78125 125.972656 119.253906 C 140.085938 118.730469 154.351562 119.78125 168.464844 119.855469 C 182.65625 120.003906 196.621094 119.253906 210.808594 120.378906 C 224.925781 121.503906 239.191406 124.503906 253.304688 124.878906 C 267.492188 125.253906 281.457031 123.003906 295.648438 123.53125 C 309.761719 123.980469 324.027344 127.28125 338.140625 128.78125 C 352.332031 130.28125 366.296875 129.980469 380.484375 128.03125 C 394.601562 126.003906 408.863281 122.253906 422.980469 123.003906 C 437.167969 123.753906 451.132812 129.003906 465.324219 131.105469 C 479.4375 133.28125 493.703125 132.230469 507.816406 129.90625 C 522.007812 127.503906 535.972656 123.753906 550.160156 123.230469 C 564.277344 122.78125 578.539062 125.480469 592.65625 127.878906 C 606.84375 130.28125 620.808594 132.230469 635 132.980469 C 649.113281 133.730469 663.378906 133.28125 677.492188 132.90625 C 691.683594 132.53125 705.648438 132.230469 712.703125 132.15625 L 719.6875 132.003906 L 719.6875 151.503906 L 712.703125 151.503906 C 705.648438 151.503906 691.683594 151.503906 677.492188 151.503906 C 663.378906 151.503906 649.113281 151.503906 635 151.503906 C 620.808594 151.503906 606.84375 151.503906 592.65625 151.503906 C 578.539062 151.503906 564.277344 151.503906 550.160156 151.503906 C 535.972656 151.503906 522.007812 151.503906 507.816406 151.503906 C 493.703125 151.503906 479.4375 151.503906 465.324219 151.503906 C 451.132812 151.503906 437.167969 151.503906 422.980469 151.503906 C 408.863281 151.503906 394.601562 151.503906 380.484375 151.503906 C 366.296875 151.503906 352.332031 151.503906 338.140625 151.503906 C 324.027344 151.503906 309.761719 151.503906 295.648438 151.503906 C 281.457031 151.503906 267.492188 151.503906 253.304688 151.503906 C 239.191406 151.503906 224.925781 151.503906 210.808594 151.503906 C 196.621094 151.503906 182.65625 151.503906 168.464844 151.503906 C 154.351562 151.503906 140.085938 151.503906 125.972656 151.503906 C 111.78125 151.503906 97.820312 151.503906 83.628906 151.503906 C 69.515625 151.503906 55.25 151.503906 41.136719 151.503906 C 26.945312 151.503906 12.980469 151.503906 5.921875 151.503906 L -1.058594 151.503906 Z M -1.058594 124.503906 " fill-opacity="1" fill-rule="nonzero"/></g><g clip-path="url(#a42b4a2db7)"><path fill="#4938c4" d="M -1.058594 130.503906 L 5.921875 129.753906 C 12.980469 129.003906 26.945312 127.503906 41.136719 128.40625 C 55.25 129.230469 69.515625 132.53125 83.628906 134.40625 C 97.820312 136.28125 111.78125 136.730469 125.972656 137.253906 C 140.085938 137.78125 154.351562 138.230469 168.464844 136.730469 C 182.65625 135.230469 196.621094 131.78125 210.808594 130.355469 C 224.925781 129.003906 239.191406 129.753906 253.304688 130.730469 C 267.492188 131.78125 281.457031 132.980469 295.648438 134.480469 C 309.761719 135.980469 324.027344 137.78125 338.140625 138.605469 C 352.332031 139.503906 366.296875 139.503906 380.484375 139.28125 C 394.601562 138.980469 408.863281 138.53125 422.980469 138.53125 C 437.167969 138.53125 451.132812 138.980469 465.324219 138.003906 C 479.4375 137.03125 493.703125 134.480469 507.816406 132.90625 C 522.007812 131.253906 535.972656 130.503906 550.160156 131.78125 C 564.277344 132.980469 578.539062 136.28125 592.65625 137.03125 C 606.84375 137.78125 620.808594 135.980469 635 135.90625 C 649.113281 135.753906 663.378906 137.253906 677.492188 137.40625 C 691.683594 137.480469 705.648438 136.28125 712.703125 135.605469 L 719.6875 135.003906 L 719.6875 151.503906 L 712.703125 151.503906 C 705.648438 151.503906 691.683594 151.503906 677.492188 151.503906 C 663.378906 151.503906 649.113281 151.503906 635 151.503906 C 620.808594 151.503906 606.84375 151.503906 592.65625 151.503906 C 578.539062 151.503906 564.277344 151.503906 550.160156 151.503906 C 535.972656 151.503906 522.007812 151.503906 507.816406 151.503906 C 493.703125 151.503906 479.4375 151.503906 465.324219 151.503906 C 451.132812 151.503906 437.167969 151.503906 422.980469 151.503906 C 408.863281 151.503906 394.601562 151.503906 380.484375 151.503906 C 366.296875 151.503906 352.332031 151.503906 338.140625 151.503906 C 324.027344 151.503906 309.761719 151.503906 295.648438 151.503906 C 281.457031 151.503906 267.492188 151.503906 253.304688 151.503906 C 239.191406 151.503906 224.925781 151.503906 210.808594 151.503906 C 196.621094 151.503906 182.65625 151.503906 168.464844 151.503906 C 154.351562 151.503906 140.085938 151.503906 125.972656 151.503906 C 111.78125 151.503906 97.820312 151.503906 83.628906 151.503906 C 69.515625 151.503906 55.25 151.503906 41.136719 151.503906 C 26.945312 151.503906 12.980469 151.503906 5.921875 151.503906 L -1.058594 151.503906 Z M -1.058594 130.503906 " fill-opacity="1" fill-rule="nonzero"/></g></svg>