<svg id="visual" viewBox="0 0 1920 1080" width="1920" height="1080" xmlns="http://www.w3.org/2000/svg" xmlns:xlink="http://www.w3.org/1999/xlink" version="1.1"><path d="M0 66L29.2 62.3C58.3 58.7 116.7 51.3 174.8 49.5C233 47.7 291 51.3 349.2 47.8C407.3 44.3 465.7 33.7 523.8 35.5C582 37.3 640 51.7 698.2 53.3C756.3 55 814.7 44 872.8 38.5C931 33 989 33 1047.2 34.8C1105.3 36.7 1163.7 40.3 1221.8 40.3C1280 40.3 1338 36.7 1396.2 34.8C1454.3 33 1512.7 33 1570.8 33C1629 33 1687 33 1745.2 31.3C1803.3 29.7 1861.7 26.3 1890.8 24.7L1920 23L1920 0L1890.8 0C1861.7 0 1803.3 0 1745.2 0C1687 0 1629 0 1570.8 0C1512.7 0 1454.3 0 1396.2 0C1338 0 1280 0 1221.8 0C1163.7 0 1105.3 0 1047.2 0C989 0 931 0 872.8 0C814.7 0 756.3 0 698.2 0C640 0 582 0 523.8 0C465.7 0 407.3 0 349.2 0C291 0 233 0 174.8 0C116.7 0 58.3 0 29.2 0L0 0Z" fill="#4938c4"></path><path d="M0 131L29.2 129.2C58.3 127.3 116.7 123.7 174.8 118.2C233 112.7 291 105.3 349.2 96.3C407.3 87.3 465.7 76.7 523.8 78.5C582 80.3 640 94.7 698.2 98.2C756.3 101.7 814.7 94.3 872.8 89C931 83.7 989 80.3 1047.2 80.3C1105.3 80.3 1163.7 83.7 1221.8 83.7C1280 83.7 1338 80.3 1396.2 80.3C1454.3 80.3 1512.7 83.7 1570.8 80C1629 76.3 1687 65.7 1745.2 67.5C1803.3 69.3 1861.7 83.7 1890.8 90.8L1920 98L1920 21L1890.8 22.7C1861.7 24.3 1803.3 27.7 1745.2 29.3C1687 31 1629 31 1570.8 31C1512.7 31 1454.3 31 1396.2 32.8C1338 34.7 1280 38.3 1221.8 38.3C1163.7 38.3 1105.3 34.7 1047.2 32.8C989 31 931 31 872.8 36.5C814.7 42 756.3 53 698.2 51.3C640 49.7 582 35.3 523.8 33.5C465.7 31.7 407.3 42.3 349.2 45.8C291 49.3 233 45.7 174.8 47.5C116.7 49.3 58.3 56.7 29.2 60.3L0 64Z" fill="#0c55d5"></path><path d="M0 303L29.2 322.8C58.3 342.7 116.7 382.3 174.8 400.3C233 418.3 291 414.7 349.2 393.2C407.3 371.7 465.7 332.3 523.8 328.8C582 325.3 640 357.7 698.2 372C756.3 386.3 814.7 382.7 872.8 380.8C931 379 989 379 1047.2 391.7C1105.3 404.3 1163.7 429.7 1221.8 427.8C1280 426 1338 397 1396.2 368.2C1454.3 339.3 1512.7 310.7 1570.8 285.5C1629 260.3 1687 238.7 1745.2 258.5C1803.3 278.3 1861.7 339.7 1890.8 370.3L1920 401L1920 96L1890.8 88.8C1861.7 81.7 1803.3 67.3 1745.2 65.5C1687 63.7 1629 74.3 1570.8 78C1512.7 81.7 1454.3 78.3 1396.2 78.3C1338 78.3 1280 81.7 1221.8 81.7C1163.7 81.7 1105.3 78.3 1047.2 78.3C989 78.3 931 81.7 872.8 87C814.7 92.3 756.3 99.7 698.2 96.2C640 92.7 582 78.3 523.8 76.5C465.7 74.7 407.3 85.3 349.2 94.3C291 103.3 233 110.7 174.8 116.2C116.7 121.7 58.3 125.3 29.2 127.2L0 129Z" fill="#006cdf"></path><path d="M0 368L29.2 384.2C58.3 400.3 116.7 432.7 174.8 445.3C233 458 291 451 349.2 429.5C407.3 408 465.7 372 523.8 368.3C582 364.7 640 393.3 698.2 405.8C756.3 418.3 814.7 414.7 872.8 420.2C931 425.7 989 440.3 1047.2 453C1105.3 465.7 1163.7 476.3 1221.8 472.7C1280 469 1338 451 1396.2 429.3C1454.3 407.7 1512.7 382.3 1570.8 355.3C1629 328.3 1687 299.7 1745.2 319.5C1803.3 339.3 1861.7 407.7 1890.8 441.8L1920 476L1920 399L1890.8 368.3C1861.7 337.7 1803.3 276.3 1745.2 256.5C1687 236.7 1629 258.3 1570.8 283.5C1512.7 308.7 1454.3 337.3 1396.2 366.2C1338 395 1280 424 1221.8 425.8C1163.7 427.7 1105.3 402.3 1047.2 389.7C989 377 931 377 872.8 378.8C814.7 380.7 756.3 384.3 698.2 370C640 355.7 582 323.3 523.8 326.8C465.7 330.3 407.3 369.7 349.2 391.2C291 412.7 233 416.3 174.8 398.3C116.7 380.3 58.3 340.7 29.2 320.8L0 301Z" fill="#0080e4"></path><path d="M0 455L29.2 465.7C58.3 476.3 116.7 497.7 174.8 504.8C233 512 291 505 349.2 481.7C407.3 458.3 465.7 418.7 523.8 422.2C582 425.7 640 472.3 698.2 490.3C756.3 508.3 814.7 497.7 872.8 492.3C931 487 989 487 1047.2 496C1105.3 505 1163.7 523 1221.8 523C1280 523 1338 505 1396.2 492.3C1454.3 479.7 1512.7 472.3 1570.8 449C1629 425.7 1687 386.3 1745.2 397.2C1803.3 408 1861.7 469 1890.8 499.5L1920 530L1920 474L1890.8 439.8C1861.7 405.7 1803.3 337.3 1745.2 317.5C1687 297.7 1629 326.3 1570.8 353.3C1512.7 380.3 1454.3 405.7 1396.2 427.3C1338 449 1280 467 1221.8 470.7C1163.7 474.3 1105.3 463.7 1047.2 451C989 438.3 931 423.7 872.8 418.2C814.7 412.7 756.3 416.3 698.2 403.8C640 391.3 582 362.7 523.8 366.3C465.7 370 407.3 406 349.2 427.5C291 449 233 456 174.8 443.3C116.7 430.7 58.3 398.3 29.2 382.2L0 366Z" fill="#0093e5"></path><path d="M0 509L29.2 514.3C58.3 519.7 116.7 530.3 174.8 535.7C233 541 291 541 349.2 517.7C407.3 494.3 465.7 447.7 523.8 447.7C582 447.7 640 494.3 698.2 517.7C756.3 541 814.7 541 872.8 535.7C931 530.3 989 519.7 1047.2 526.8C1105.3 534 1163.7 559 1221.8 564.3C1280 569.7 1338 555.3 1396.2 542.8C1454.3 530.3 1512.7 519.7 1570.8 492.7C1629 465.7 1687 422.3 1745.2 434.8C1803.3 447.3 1861.7 515.7 1890.8 549.8L1920 584L1920 528L1890.8 497.5C1861.7 467 1803.3 406 1745.2 395.2C1687 384.3 1629 423.7 1570.8 447C1512.7 470.3 1454.3 477.7 1396.2 490.3C1338 503 1280 521 1221.8 521C1163.7 521 1105.3 503 1047.2 494C989 485 931 485 872.8 490.3C814.7 495.7 756.3 506.3 698.2 488.3C640 470.3 582 423.7 523.8 420.2C465.7 416.7 407.3 456.3 349.2 479.7C291 503 233 510 174.8 502.8C116.7 495.7 58.3 474.3 29.2 463.7L0 453Z" fill="#00a4e3"></path><path d="M0 563L29.2 568.3C58.3 573.7 116.7 584.3 174.8 591.5C233 598.7 291 602.3 349.2 579C407.3 555.7 465.7 505.3 523.8 505.3C582 505.3 640 555.7 698.2 577.2C756.3 598.7 814.7 591.3 872.8 584.2C931 577 989 570 1047.2 573.7C1105.3 577.3 1163.7 591.7 1221.8 591.7C1280 591.7 1338 577.3 1396.2 564.7C1454.3 552 1512.7 541 1570.8 521.2C1629 501.3 1687 472.7 1745.2 487.2C1803.3 501.7 1861.7 559.3 1890.8 588.2L1920 617L1920 582L1890.8 547.8C1861.7 513.7 1803.3 445.3 1745.2 432.8C1687 420.3 1629 463.7 1570.8 490.7C1512.7 517.7 1454.3 528.3 1396.2 540.8C1338 553.3 1280 567.7 1221.8 562.3C1163.7 557 1105.3 532 1047.2 524.8C989 517.7 931 528.3 872.8 533.7C814.7 539 756.3 539 698.2 515.7C640 492.3 582 445.7 523.8 445.7C465.7 445.7 407.3 492.3 349.2 515.7C291 539 233 539 174.8 533.7C116.7 528.3 58.3 517.7 29.2 512.3L0 507Z" fill="#00b4e3"></path><path d="M0 627L29.2 630.7C58.3 634.3 116.7 641.7 174.8 649C233 656.3 291 663.7 349.2 640.3C407.3 617 465.7 563 523.8 563C582 563 640 617 698.2 642.2C756.3 667.3 814.7 663.7 872.8 652.8C931 642 989 624 1047.2 622.2C1105.3 620.3 1163.7 634.7 1221.8 632.8C1280 631 1338 613 1396.2 600.3C1454.3 587.7 1512.7 580.3 1570.8 564.2C1629 548 1687 523 1745.2 541C1803.3 559 1861.7 620 1890.8 650.5L1920 681L1920 615L1890.8 586.2C1861.7 557.3 1803.3 499.7 1745.2 485.2C1687 470.7 1629 499.3 1570.8 519.2C1512.7 539 1454.3 550 1396.2 562.7C1338 575.3 1280 589.7 1221.8 589.7C1163.7 589.7 1105.3 575.3 1047.2 571.7C989 568 931 575 872.8 582.2C814.7 589.3 756.3 596.7 698.2 575.2C640 553.7 582 503.3 523.8 503.3C465.7 503.3 407.3 553.7 349.2 577C291 600.3 233 596.7 174.8 589.5C116.7 582.3 58.3 571.7 29.2 566.3L0 561Z" fill="#00c3de"></path><path d="M0 681L29.2 699C58.3 717 116.7 753 174.8 771C233 789 291 789 349.2 767.5C407.3 746 465.7 703 523.8 695.8C582 688.7 640 717.3 698.2 733.5C756.3 749.7 814.7 753.3 872.8 749.8C931 746.3 989 735.7 1047.2 728.5C1105.3 721.3 1163.7 717.7 1221.8 706.8C1280 696 1338 678 1396.2 669C1454.3 660 1512.7 660 1570.8 643.8C1629 627.7 1687 595.3 1745.2 607.8C1803.3 620.3 1861.7 677.7 1890.8 706.3L1920 735L1920 679L1890.8 648.5C1861.7 618 1803.3 557 1745.2 539C1687 521 1629 546 1570.8 562.2C1512.7 578.3 1454.3 585.7 1396.2 598.3C1338 611 1280 629 1221.8 630.8C1163.7 632.7 1105.3 618.3 1047.2 620.2C989 622 931 640 872.8 650.8C814.7 661.7 756.3 665.3 698.2 640.2C640 615 582 561 523.8 561C465.7 561 407.3 615 349.2 638.3C291 661.7 233 654.3 174.8 647C116.7 639.7 58.3 632.3 29.2 628.7L0 625Z" fill="#00d0d0"></path><path d="M0 962L29.2 949.5C58.3 937 116.7 912 174.8 906.7C233 901.3 291 915.7 349.2 908.3C407.3 901 465.7 872 523.8 877.3C582 882.7 640 922.3 698.2 926C756.3 929.7 814.7 897.3 872.8 897.3C931 897.3 989 929.7 1047.2 935C1105.3 940.3 1163.7 918.7 1221.8 884.5C1280 850.3 1338 803.7 1396.2 812.7C1454.3 821.7 1512.7 886.3 1570.8 904.3C1629 922.3 1687 893.7 1745.2 877.5C1803.3 861.3 1861.7 857.7 1890.8 855.8L1920 854L1920 733L1890.8 704.3C1861.7 675.7 1803.3 618.3 1745.2 605.8C1687 593.3 1629 625.7 1570.8 641.8C1512.7 658 1454.3 658 1396.2 667C1338 676 1280 694 1221.8 704.8C1163.7 715.7 1105.3 719.3 1047.2 726.5C989 733.7 931 744.3 872.8 747.8C814.7 751.3 756.3 747.7 698.2 731.5C640 715.3 582 686.7 523.8 693.8C465.7 701 407.3 744 349.2 765.5C291 787 233 787 174.8 769C116.7 751 58.3 715 29.2 697L0 679Z" fill="#12dbbc"></path><path d="M0 1016L29.2 1016C58.3 1016 116.7 1016 174.8 1019.7C233 1023.3 291 1030.7 349.2 1032.5C407.3 1034.3 465.7 1030.7 523.8 1030.7C582 1030.7 640 1034.3 698.2 1032.5C756.3 1030.7 814.7 1023.3 872.8 1023.3C931 1023.3 989 1030.7 1047.2 1028.8C1105.3 1027 1163.7 1016 1221.8 1001.5C1280 987 1338 969 1396.2 972.7C1454.3 976.3 1512.7 1001.7 1570.8 1016.2C1629 1030.7 1687 1034.3 1745.2 1032.5C1803.3 1030.7 1861.7 1023.3 1890.8 1019.7L1920 1016L1920 852L1890.8 853.8C1861.7 855.7 1803.3 859.3 1745.2 875.5C1687 891.7 1629 920.3 1570.8 902.3C1512.7 884.3 1454.3 819.7 1396.2 810.7C1338 801.7 1280 848.3 1221.8 882.5C1163.7 916.7 1105.3 938.3 1047.2 933C989 927.7 931 895.3 872.8 895.3C814.7 895.3 756.3 927.7 698.2 924C640 920.3 582 880.7 523.8 875.3C465.7 870 407.3 899 349.2 906.3C291 913.7 233 899.3 174.8 904.7C116.7 910 58.3 935 29.2 947.5L0 960Z" fill="#65e4a5"></path><path d="M0 1081L29.2 1081C58.3 1081 116.7 1081 174.8 1081C233 1081 291 1081 349.2 1081C407.3 1081 465.7 1081 523.8 1081C582 1081 640 1081 698.2 1081C756.3 1081 814.7 1081 872.8 1081C931 1081 989 1081 1047.2 1081C1105.3 1081 1163.7 1081 1221.8 1081C1280 1081 1338 1081 1396.2 1081C1454.3 1081 1512.7 1081 1570.8 1081C1629 1081 1687 1081 1745.2 1081C1803.3 1081 1861.7 1081 1890.8 1081L1920 1081L1920 1014L1890.8 1017.7C1861.7 1021.3 1803.3 1028.7 1745.2 1030.5C1687 1032.3 1629 1028.7 1570.8 1014.2C1512.7 999.7 1454.3 974.3 1396.2 970.7C1338 967 1280 985 1221.8 999.5C1163.7 1014 1105.3 1025 1047.2 1026.8C989 1028.7 931 1021.3 872.8 1021.3C814.7 1021.3 756.3 1028.7 698.2 1030.5C640 1032.3 582 1028.7 523.8 1028.7C465.7 1028.7 407.3 1032.3 349.2 1030.5C291 1028.7 233 1021.3 174.8 1017.7C116.7 1014 58.3 1014 29.2 1014L0 1014Z" fill="#9aeb8e"></path></svg>