<svg id="visual" viewBox="0 0 1920 1080" width="1920" height="1080" xmlns="http://www.w3.org/2000/svg" xmlns:xlink="http://www.w3.org/1999/xlink" version="1.1"><rect x="0" y="0" width="1920" height="1080" fill="#0b1227"></rect><path d="M0 674L15.2 694.3C30.3 714.7 60.7 755.3 91.2 774.5C121.7 793.7 152.3 791.3 182.8 774.7C213.3 758 243.7 727 274.2 707.7C304.7 688.3 335.3 680.7 365.8 701.2C396.3 721.7 426.7 770.3 457.2 789.3C487.7 808.3 518.3 797.7 548.8 792.3C579.3 787 609.7 787 640 771.8C670.3 756.7 700.7 726.3 731.2 714.5C761.7 702.7 792.3 709.3 822.8 705.3C853.3 701.3 883.7 686.7 914.2 681.3C944.7 676 975.3 680 1005.8 698C1036.3 716 1066.7 748 1097.2 747C1127.7 746 1158.3 712 1188.8 707.8C1219.3 703.7 1249.7 729.3 1280 737C1310.3 744.7 1340.7 734.3 1371.2 740.3C1401.7 746.3 1432.3 768.7 1462.8 782.2C1493.3 795.7 1523.7 800.3 1554.2 795.5C1584.7 790.7 1615.3 776.3 1645.8 780.2C1676.3 784 1706.7 806 1737.2 806.8C1767.7 807.7 1798.3 787.3 1828.8 767.3C1859.3 747.3 1889.7 727.7 1904.8 717.8L1920 708L1920 1081L1904.8 1081C1889.7 1081 1859.3 1081 1828.8 1081C1798.3 1081 1767.7 1081 1737.2 1081C1706.7 1081 1676.3 1081 1645.8 1081C1615.3 1081 1584.7 1081 1554.2 1081C1523.7 1081 1493.3 1081 1462.8 1081C1432.3 1081 1401.7 1081 1371.2 1081C1340.7 1081 1310.3 1081 1280 1081C1249.7 1081 1219.3 1081 1188.8 1081C1158.3 1081 1127.7 1081 1097.2 1081C1066.7 1081 1036.3 1081 1005.8 1081C975.3 1081 944.7 1081 914.2 1081C883.7 1081 853.3 1081 822.8 1081C792.3 1081 761.7 1081 731.2 1081C700.7 1081 670.3 1081 640 1081C609.7 1081 579.3 1081 548.8 1081C518.3 1081 487.7 1081 457.2 1081C426.7 1081 396.3 1081 365.8 1081C335.3 1081 304.7 1081 274.2 1081C243.7 1081 213.3 1081 182.8 1081C152.3 1081 121.7 1081 91.2 1081C60.7 1081 30.3 1081 15.2 1081L0 1081Z" fill="#fa7268"></path><path d="M0 740L15.2 753.7C30.3 767.3 60.7 794.7 91.2 812.3C121.7 830 152.3 838 182.8 828C213.3 818 243.7 790 274.2 783.3C304.7 776.7 335.3 791.3 365.8 788.2C396.3 785 426.7 764 457.2 769.2C487.7 774.3 518.3 805.7 548.8 826.7C579.3 847.7 609.7 858.3 640 858.3C670.3 858.3 700.7 847.7 731.2 826.2C761.7 804.7 792.3 772.3 822.8 757C853.3 741.7 883.7 743.3 914.2 760.2C944.7 777 975.3 809 1005.8 810.5C1036.3 812 1066.7 783 1097.2 767.2C1127.7 751.3 1158.3 748.7 1188.8 759.2C1219.3 769.7 1249.7 793.3 1280 799.2C1310.3 805 1340.7 793 1371.2 796.2C1401.7 799.3 1432.3 817.7 1462.8 826.3C1493.3 835 1523.7 834 1554.2 838.7C1584.7 843.3 1615.3 853.7 1645.8 856.2C1676.3 858.7 1706.7 853.3 1737.2 850C1767.7 846.7 1798.3 845.3 1828.8 834.5C1859.3 823.7 1889.7 803.3 1904.8 793.2L1920 783L1920 1081L1904.8 1081C1889.7 1081 1859.3 1081 1828.8 1081C1798.3 1081 1767.7 1081 1737.2 1081C1706.7 1081 1676.3 1081 1645.8 1081C1615.3 1081 1584.7 1081 1554.2 1081C1523.7 1081 1493.3 1081 1462.8 1081C1432.3 1081 1401.7 1081 1371.2 1081C1340.7 1081 1310.3 1081 1280 1081C1249.7 1081 1219.3 1081 1188.8 1081C1158.3 1081 1127.7 1081 1097.2 1081C1066.7 1081 1036.3 1081 1005.8 1081C975.3 1081 944.7 1081 914.2 1081C883.7 1081 853.3 1081 822.8 1081C792.3 1081 761.7 1081 731.2 1081C700.7 1081 670.3 1081 640 1081C609.7 1081 579.3 1081 548.8 1081C518.3 1081 487.7 1081 457.2 1081C426.7 1081 396.3 1081 365.8 1081C335.3 1081 304.7 1081 274.2 1081C243.7 1081 213.3 1081 182.8 1081C152.3 1081 121.7 1081 91.2 1081C60.7 1081 30.3 1081 15.2 1081L0 1081Z" fill="#ef5f67"></path><path d="M0 852L15.2 862.7C30.3 873.3 60.7 894.7 91.2 907.5C121.7 920.3 152.3 924.7 182.8 926.8C213.3 929 243.7 929 274.2 919.2C304.7 909.3 335.3 889.7 365.8 886C396.3 882.3 426.7 894.7 457.2 888.8C487.7 883 518.3 859 548.8 858.7C579.3 858.3 609.7 881.7 640 899.2C670.3 916.7 700.7 928.3 731.2 927.3C761.7 926.3 792.3 912.7 822.8 903.5C853.3 894.3 883.7 889.7 914.2 893C944.7 896.3 975.3 907.7 1005.8 916.2C1036.3 924.7 1066.7 930.3 1097.2 926.5C1127.7 922.7 1158.3 909.3 1188.8 889C1219.3 868.7 1249.7 841.3 1280 846.2C1310.3 851 1340.7 888 1371.2 900.7C1401.7 913.3 1432.3 901.7 1462.8 900.3C1493.3 899 1523.7 908 1554.2 910.3C1584.7 912.7 1615.3 908.3 1645.8 902C1676.3 895.7 1706.7 887.3 1737.2 884.5C1767.7 881.7 1798.3 884.3 1828.8 884.2C1859.3 884 1889.7 881 1904.8 879.5L1920 878L1920 1081L1904.8 1081C1889.7 1081 1859.3 1081 1828.8 1081C1798.3 1081 1767.7 1081 1737.2 1081C1706.7 1081 1676.3 1081 1645.8 1081C1615.3 1081 1584.7 1081 1554.2 1081C1523.7 1081 1493.3 1081 1462.8 1081C1432.3 1081 1401.7 1081 1371.2 1081C1340.7 1081 1310.3 1081 1280 1081C1249.7 1081 1219.3 1081 1188.8 1081C1158.3 1081 1127.7 1081 1097.2 1081C1066.7 1081 1036.3 1081 1005.8 1081C975.3 1081 944.7 1081 914.2 1081C883.7 1081 853.3 1081 822.8 1081C792.3 1081 761.7 1081 731.2 1081C700.7 1081 670.3 1081 640 1081C609.7 1081 579.3 1081 548.8 1081C518.3 1081 487.7 1081 457.2 1081C426.7 1081 396.3 1081 365.8 1081C335.3 1081 304.7 1081 274.2 1081C243.7 1081 213.3 1081 182.8 1081C152.3 1081 121.7 1081 91.2 1081C60.7 1081 30.3 1081 15.2 1081L0 1081Z" fill="#e34c67"></path><path d="M0 971L15.2 972.7C30.3 974.3 60.7 977.7 91.2 982.3C121.7 987 152.3 993 182.8 980.3C213.3 967.7 243.7 936.3 274.2 936.3C304.7 936.3 335.3 967.7 365.8 976.3C396.3 985 426.7 971 457.2 960.5C487.7 950 518.3 943 548.8 931.7C579.3 920.3 609.7 904.7 640 900.2C670.3 895.7 700.7 902.3 731.2 917.2C761.7 932 792.3 955 822.8 963.5C853.3 972 883.7 966 914.2 956.2C944.7 946.3 975.3 932.7 1005.8 928.7C1036.3 924.7 1066.7 930.3 1097.2 933.2C1127.7 936 1158.3 936 1188.8 937.2C1219.3 938.3 1249.7 940.7 1280 943.3C1310.3 946 1340.7 949 1371.2 945.5C1401.7 942 1432.3 932 1462.8 932.7C1493.3 933.3 1523.7 944.7 1554.2 946.5C1584.7 948.3 1615.3 940.7 1645.8 944.2C1676.3 947.7 1706.7 962.3 1737.2 972.2C1767.7 982 1798.3 987 1828.8 987.2C1859.3 987.3 1889.7 982.7 1904.8 980.3L1920 978L1920 1081L1904.8 1081C1889.7 1081 1859.3 1081 1828.8 1081C1798.3 1081 1767.7 1081 1737.2 1081C1706.7 1081 1676.3 1081 1645.8 1081C1615.3 1081 1584.7 1081 1554.2 1081C1523.7 1081 1493.3 1081 1462.8 1081C1432.3 1081 1401.7 1081 1371.2 1081C1340.7 1081 1310.3 1081 1280 1081C1249.7 1081 1219.3 1081 1188.8 1081C1158.3 1081 1127.7 1081 1097.2 1081C1066.7 1081 1036.3 1081 1005.8 1081C975.3 1081 944.7 1081 914.2 1081C883.7 1081 853.3 1081 822.8 1081C792.3 1081 761.7 1081 731.2 1081C700.7 1081 670.3 1081 640 1081C609.7 1081 579.3 1081 548.8 1081C518.3 1081 487.7 1081 457.2 1081C426.7 1081 396.3 1081 365.8 1081C335.3 1081 304.7 1081 274.2 1081C243.7 1081 213.3 1081 182.8 1081C152.3 1081 121.7 1081 91.2 1081C60.7 1081 30.3 1081 15.2 1081L0 1081Z" fill="#d53867"></path><path d="M0 1002L15.2 994.5C30.3 987 60.7 972 91.2 981C121.7 990 152.3 1023 182.8 1022.5C213.3 1022 243.7 988 274.2 979.8C304.7 971.7 335.3 989.3 365.8 998.7C396.3 1008 426.7 1009 457.2 1011C487.7 1013 518.3 1016 548.8 1023.7C579.3 1031.3 609.7 1043.7 640 1039.3C670.3 1035 700.7 1014 731.2 997.8C761.7 981.7 792.3 970.3 822.8 978.2C853.3 986 883.7 1013 914.2 1021.2C944.7 1029.3 975.3 1018.7 1005.8 1019.3C1036.3 1020 1066.7 1032 1097.2 1022.5C1127.7 1013 1158.3 982 1188.8 974.7C1219.3 967.3 1249.7 983.7 1280 987.7C1310.3 991.7 1340.7 983.3 1371.2 987.3C1401.7 991.3 1432.3 1007.7 1462.8 1004.8C1493.3 1002 1523.7 980 1554.2 978.2C1584.7 976.3 1615.3 994.7 1645.8 1002.7C1676.3 1010.7 1706.7 1008.3 1737.2 1015C1767.7 1021.7 1798.3 1037.3 1828.8 1035.2C1859.3 1033 1889.7 1013 1904.8 1003L1920 993L1920 1081L1904.8 1081C1889.7 1081 1859.3 1081 1828.8 1081C1798.3 1081 1767.7 1081 1737.2 1081C1706.7 1081 1676.3 1081 1645.8 1081C1615.3 1081 1584.7 1081 1554.2 1081C1523.7 1081 1493.3 1081 1462.8 1081C1432.3 1081 1401.7 1081 1371.2 1081C1340.7 1081 1310.3 1081 1280 1081C1249.7 1081 1219.3 1081 1188.8 1081C1158.3 1081 1127.7 1081 1097.2 1081C1066.7 1081 1036.3 1081 1005.8 1081C975.3 1081 944.7 1081 914.2 1081C883.7 1081 853.3 1081 822.8 1081C792.3 1081 761.7 1081 731.2 1081C700.7 1081 670.3 1081 640 1081C609.7 1081 579.3 1081 548.8 1081C518.3 1081 487.7 1081 457.2 1081C426.7 1081 396.3 1081 365.8 1081C335.3 1081 304.7 1081 274.2 1081C243.7 1081 213.3 1081 182.8 1081C152.3 1081 121.7 1081 91.2 1081C60.7 1081 30.3 1081 15.2 1081L0 1081Z" fill="#c62368"></path></svg>