<svg id="visual" viewBox="0 0 1920 1080" width="1920" height="1080" xmlns="http://www.w3.org/2000/svg" xmlns:xlink="http://www.w3.org/1999/xlink" version="1.1"><path d="M0 23L16 24.7C32 26.3 64 29.7 96 31.3C128 33 160 33 192 40.3C224 47.7 256 62.3 288 62.3C320 62.3 352 47.7 384 45.8C416 44 448 55 480 60.5C512 66 544 66 576 58.8C608 51.7 640 37.3 672 30.2C704 23 736 23 768 26.5C800 30 832 37 864 46C896 55 928 66 960 67.8C992 69.7 1024 62.3 1056 53.3C1088 44.3 1120 33.7 1152 35.5C1184 37.3 1216 51.7 1248 57C1280 62.3 1312 58.7 1344 55C1376 51.3 1408 47.7 1440 47.7C1472 47.7 1504 51.3 1536 47.8C1568 44.3 1600 33.7 1632 31.8C1664 30 1696 37 1728 38.7C1760 40.3 1792 36.7 1824 38.5C1856 40.3 1888 47.7 1904 51.3L1920 55L1920 0L1904 0C1888 0 1856 0 1824 0C1792 0 1760 0 1728 0C1696 0 1664 0 1632 0C1600 0 1568 0 1536 0C1504 0 1472 0 1440 0C1408 0 1376 0 1344 0C1312 0 1280 0 1248 0C1216 0 1184 0 1152 0C1120 0 1088 0 1056 0C1024 0 992 0 960 0C928 0 896 0 864 0C832 0 800 0 768 0C736 0 704 0 672 0C640 0 608 0 576 0C544 0 512 0 480 0C448 0 416 0 384 0C352 0 320 0 288 0C256 0 224 0 192 0C160 0 128 0 96 0C64 0 32 0 16 0L0 0Z" fill="#6600ff"></path><path d="M0 141L16 139.3C32 137.7 64 134.3 96 129C128 123.7 160 116.3 192 116.3C224 116.3 256 123.7 288 125.5C320 127.3 352 123.7 384 123.7C416 123.7 448 127.3 480 139.8C512 152.3 544 173.7 576 161C608 148.3 640 101.7 672 82C704 62.3 736 69.7 768 82.3C800 95 832 113 864 125.5C896 138 928 145 960 146.7C992 148.3 1024 144.7 1056 135.7C1088 126.7 1120 112.3 1152 108.8C1184 105.3 1216 112.7 1248 116.3C1280 120 1312 120 1344 116.3C1376 112.7 1408 105.3 1440 112.5C1472 119.7 1504 141.3 1536 143.2C1568 145 1600 127 1632 123.3C1664 119.7 1696 130.3 1728 132.2C1760 134 1792 127 1824 130.7C1856 134.3 1888 148.7 1904 155.8L1920 163L1920 53L1904 49.3C1888 45.7 1856 38.3 1824 36.5C1792 34.7 1760 38.3 1728 36.7C1696 35 1664 28 1632 29.8C1600 31.7 1568 42.3 1536 45.8C1504 49.3 1472 45.7 1440 45.7C1408 45.7 1376 49.3 1344 53C1312 56.7 1280 60.3 1248 55C1216 49.7 1184 35.3 1152 33.5C1120 31.7 1088 42.3 1056 51.3C1024 60.3 992 67.7 960 65.8C928 64 896 53 864 44C832 35 800 28 768 24.5C736 21 704 21 672 28.2C640 35.3 608 49.7 576 56.8C544 64 512 64 480 58.5C448 53 416 42 384 43.8C352 45.7 320 60.3 288 60.3C256 60.3 224 45.7 192 38.3C160 31 128 31 96 29.3C64 27.7 32 24.3 16 22.7L0 21Z" fill="#8c00f4"></path><path d="M0 163L16 170.2C32 177.3 64 191.7 96 191.7C128 191.7 160 177.3 192 170.2C224 163 256 163 288 163C320 163 352 163 384 166.7C416 170.3 448 177.7 480 188.5C512 199.3 544 213.7 576 202.8C608 192 640 156 672 134.3C704 112.7 736 105.3 768 112.5C800 119.7 832 141.3 864 157.5C896 173.7 928 184.3 960 191.5C992 198.7 1024 202.3 1056 193.3C1088 184.3 1120 162.7 1152 155.5C1184 148.3 1216 155.7 1248 163C1280 170.3 1312 177.7 1344 174C1376 170.3 1408 155.7 1440 157.3C1472 159 1504 177 1536 175.3C1568 173.7 1600 152.3 1632 154.2C1664 156 1696 181 1728 182.7C1760 184.3 1792 162.7 1824 162.7C1856 162.7 1888 184.3 1904 195.2L1920 206L1920 161L1904 153.8C1888 146.7 1856 132.3 1824 128.7C1792 125 1760 132 1728 130.2C1696 128.3 1664 117.7 1632 121.3C1600 125 1568 143 1536 141.2C1504 139.3 1472 117.7 1440 110.5C1408 103.3 1376 110.7 1344 114.3C1312 118 1280 118 1248 114.3C1216 110.7 1184 103.3 1152 106.8C1120 110.3 1088 124.7 1056 133.7C1024 142.7 992 146.3 960 144.7C928 143 896 136 864 123.5C832 111 800 93 768 80.3C736 67.7 704 60.3 672 80C640 99.7 608 146.3 576 159C544 171.7 512 150.3 480 137.8C448 125.3 416 121.7 384 121.7C352 121.7 320 125.3 288 123.5C256 121.7 224 114.3 192 114.3C160 114.3 128 121.7 96 127C64 132.3 32 135.7 16 137.3L0 139Z" fill="#a700e9"></path><path d="M0 195L16 200.5C32 206 64 217 96 220.7C128 224.3 160 220.7 192 218.8C224 217 256 217 288 215.2C320 213.3 352 209.7 384 213.3C416 217 448 228 480 235.2C512 242.3 544 245.7 576 234.8C608 224 640 199 672 182.8C704 166.7 736 159.3 768 164.7C800 170 832 188 864 202.5C896 217 928 228 960 233.5C992 239 1024 239 1056 226.3C1088 213.7 1120 188.3 1152 184.7C1184 181 1216 199 1248 209.8C1280 220.7 1312 224.3 1344 220.7C1376 217 1408 206 1440 207.8C1472 209.7 1504 224.3 1536 220.8C1568 217.3 1600 195.7 1632 195.7C1664 195.7 1696 217.3 1728 217.3C1760 217.3 1792 195.7 1824 197.3C1856 199 1888 224 1904 236.5L1920 249L1920 204L1904 193.2C1888 182.3 1856 160.7 1824 160.7C1792 160.7 1760 182.3 1728 180.7C1696 179 1664 154 1632 152.2C1600 150.3 1568 171.7 1536 173.3C1504 175 1472 157 1440 155.3C1408 153.7 1376 168.3 1344 172C1312 175.7 1280 168.3 1248 161C1216 153.7 1184 146.3 1152 153.5C1120 160.7 1088 182.3 1056 191.3C1024 200.3 992 196.7 960 189.5C928 182.3 896 171.7 864 155.5C832 139.3 800 117.7 768 110.5C736 103.3 704 110.7 672 132.3C640 154 608 190 576 200.8C544 211.7 512 197.3 480 186.5C448 175.7 416 168.3 384 164.7C352 161 320 161 288 161C256 161 224 161 192 168.2C160 175.3 128 189.7 96 189.7C64 189.7 32 175.3 16 168.2L0 161Z" fill="#bb00de"></path><path d="M0 239L16 242.5C32 246 64 253 96 260.2C128 267.3 160 274.7 192 274.7C224 274.7 256 267.3 288 267.3C320 267.3 352 274.7 384 276.5C416 278.3 448 274.7 480 276.5C512 278.3 544 285.7 576 283.8C608 282 640 271 672 260.2C704 249.3 736 238.7 768 238.7C800 238.7 832 249.3 864 265.5C896 281.7 928 303.3 960 312.3C992 321.3 1024 317.7 1056 296C1088 274.3 1120 234.7 1152 227.5C1184 220.3 1216 245.7 1248 256.5C1280 267.3 1312 263.7 1344 258.3C1376 253 1408 246 1440 249.7C1472 253.3 1504 267.7 1536 269.3C1568 271 1600 260 1632 267.2C1664 274.3 1696 299.7 1728 303.3C1760 307 1792 289 1824 283.7C1856 278.3 1888 285.7 1904 289.3L1920 293L1920 247L1904 234.5C1888 222 1856 197 1824 195.3C1792 193.7 1760 215.3 1728 215.3C1696 215.3 1664 193.7 1632 193.7C1600 193.7 1568 215.3 1536 218.8C1504 222.3 1472 207.7 1440 205.8C1408 204 1376 215 1344 218.7C1312 222.3 1280 218.7 1248 207.8C1216 197 1184 179 1152 182.7C1120 186.3 1088 211.7 1056 224.3C1024 237 992 237 960 231.5C928 226 896 215 864 200.5C832 186 800 168 768 162.7C736 157.3 704 164.7 672 180.8C640 197 608 222 576 232.8C544 243.7 512 240.3 480 233.2C448 226 416 215 384 211.3C352 207.7 320 211.3 288 213.2C256 215 224 215 192 216.8C160 218.7 128 222.3 96 218.7C64 215 32 204 16 198.5L0 193Z" fill="#cc00d4"></path><path d="M0 282L16 292.8C32 303.7 64 325.3 96 334.3C128 343.3 160 339.7 192 330.7C224 321.7 256 307.3 288 312.7C320 318 352 343 384 350.2C416 357.3 448 346.7 480 341.3C512 336 544 336 576 337.8C608 339.7 640 343.3 672 330.7C704 318 736 289 768 285.3C800 281.7 832 303.3 864 325C896 346.7 928 368.3 960 381C992 393.7 1024 397.3 1056 372.2C1088 347 1120 293 1152 284C1184 275 1216 311 1248 325.3C1280 339.7 1312 332.3 1344 317.8C1376 303.3 1408 281.7 1440 283.5C1472 285.3 1504 310.7 1536 316.2C1568 321.7 1600 307.3 1632 310.8C1664 314.3 1696 335.7 1728 337.3C1760 339 1792 321 1824 322.8C1856 324.7 1888 346.3 1904 357.2L1920 368L1920 291L1904 287.3C1888 283.7 1856 276.3 1824 281.7C1792 287 1760 305 1728 301.3C1696 297.7 1664 272.3 1632 265.2C1600 258 1568 269 1536 267.3C1504 265.7 1472 251.3 1440 247.7C1408 244 1376 251 1344 256.3C1312 261.7 1280 265.3 1248 254.5C1216 243.7 1184 218.3 1152 225.5C1120 232.7 1088 272.3 1056 294C1024 315.7 992 319.3 960 310.3C928 301.3 896 279.7 864 263.5C832 247.3 800 236.7 768 236.7C736 236.7 704 247.3 672 258.2C640 269 608 280 576 281.8C544 283.7 512 276.3 480 274.5C448 272.7 416 276.3 384 274.5C352 272.7 320 265.3 288 265.3C256 265.3 224 272.7 192 272.7C160 272.7 128 265.3 96 258.2C64 251 32 244 16 240.5L0 237Z" fill="#d90fcb"></path><path d="M0 368L16 375.2C32 382.3 64 396.7 96 411.2C128 425.7 160 440.3 192 433.2C224 426 256 397 288 391.5C320 386 352 404 384 405.8C416 407.7 448 393.3 480 395.2C512 397 544 415 576 418.7C608 422.3 640 411.7 672 402.7C704 393.7 736 386.3 768 397C800 407.7 832 436.3 864 458C896 479.7 928 494.3 960 503.3C992 512.3 1024 515.7 1056 485C1088 454.3 1120 389.7 1152 368.2C1184 346.7 1216 368.3 1248 386.3C1280 404.3 1312 418.7 1344 411.5C1376 404.3 1408 375.7 1440 379.3C1472 383 1504 419 1536 424.3C1568 429.7 1600 404.3 1632 395.3C1664 386.3 1696 393.7 1728 391.8C1760 390 1792 379 1824 393.3C1856 407.7 1888 447.3 1904 467.2L1920 487L1920 366L1904 355.2C1888 344.3 1856 322.7 1824 320.8C1792 319 1760 337 1728 335.3C1696 333.7 1664 312.3 1632 308.8C1600 305.3 1568 319.7 1536 314.2C1504 308.7 1472 283.3 1440 281.5C1408 279.7 1376 301.3 1344 315.8C1312 330.3 1280 337.7 1248 323.3C1216 309 1184 273 1152 282C1120 291 1088 345 1056 370.2C1024 395.3 992 391.7 960 379C928 366.3 896 344.7 864 323C832 301.3 800 279.7 768 283.3C736 287 704 316 672 328.7C640 341.3 608 337.7 576 335.8C544 334 512 334 480 339.3C448 344.7 416 355.3 384 348.2C352 341 320 316 288 310.7C256 305.3 224 319.7 192 328.7C160 337.7 128 341.3 96 332.3C64 323.3 32 301.7 16 290.8L0 280Z" fill="#e426c3"></path><path d="M0 433L16 433C32 433 64 433 96 440.2C128 447.3 160 461.7 192 456.3C224 451 256 426 288 424.2C320 422.3 352 443.7 384 445.3C416 447 448 429 480 434.5C512 440 544 469 576 470.8C608 472.7 640 447.3 672 436.5C704 425.7 736 429.3 768 445.5C800 461.7 832 490.3 864 508.3C896 526.3 928 533.7 960 537.3C992 541 1024 541 1056 508.7C1088 476.3 1120 411.7 1152 393.7C1184 375.7 1216 404.3 1248 424C1280 443.7 1312 454.3 1344 449C1376 443.7 1408 422.3 1440 431.3C1472 440.3 1504 479.7 1536 486.8C1568 494 1600 469 1632 460C1664 451 1696 458 1728 450.8C1760 443.7 1792 422.3 1824 429.7C1856 437 1888 473 1904 491L1920 509L1920 485L1904 465.2C1888 445.3 1856 405.7 1824 391.3C1792 377 1760 388 1728 389.8C1696 391.7 1664 384.3 1632 393.3C1600 402.3 1568 427.7 1536 422.3C1504 417 1472 381 1440 377.3C1408 373.7 1376 402.3 1344 409.5C1312 416.7 1280 402.3 1248 384.3C1216 366.3 1184 344.7 1152 366.2C1120 387.7 1088 452.3 1056 483C1024 513.7 992 510.3 960 501.3C928 492.3 896 477.7 864 456C832 434.3 800 405.7 768 395C736 384.3 704 391.7 672 400.7C640 409.7 608 420.3 576 416.7C544 413 512 395 480 393.2C448 391.3 416 405.7 384 403.8C352 402 320 384 288 389.5C256 395 224 424 192 431.2C160 438.3 128 423.7 96 409.2C64 394.7 32 380.3 16 373.2L0 366Z" fill="#ed38bc"></path><path d="M0 660L16 645.5C32 631 64 602 96 605.5C128 609 160 645 192 672C224 699 256 717 288 702.7C320 688.3 352 641.7 384 618.3C416 595 448 595 480 602.2C512 609.3 544 623.7 576 641.7C608 659.7 640 681.3 672 686.8C704 692.3 736 681.7 768 683.5C800 685.3 832 699.7 864 723C896 746.3 928 778.7 960 784C992 789.3 1024 767.7 1056 731.7C1088 695.7 1120 645.3 1152 625.5C1184 605.7 1216 616.3 1248 616.3C1280 616.3 1312 605.7 1344 600.3C1376 595 1408 595 1440 613C1472 631 1504 667 1536 672.3C1568 677.7 1600 652.3 1632 647C1664 641.7 1696 656.3 1728 649.2C1760 642 1792 613 1824 625.5C1856 638 1888 692 1904 719L1920 746L1920 507L1904 489C1888 471 1856 435 1824 427.7C1792 420.3 1760 441.7 1728 448.8C1696 456 1664 449 1632 458C1600 467 1568 492 1536 484.8C1504 477.7 1472 438.3 1440 429.3C1408 420.3 1376 441.7 1344 447C1312 452.3 1280 441.7 1248 422C1216 402.3 1184 373.7 1152 391.7C1120 409.7 1088 474.3 1056 506.7C1024 539 992 539 960 535.3C928 531.7 896 524.3 864 506.3C832 488.3 800 459.7 768 443.5C736 427.3 704 423.7 672 434.5C640 445.3 608 470.7 576 468.8C544 467 512 438 480 432.5C448 427 416 445 384 443.3C352 441.7 320 420.3 288 422.2C256 424 224 449 192 454.3C160 459.7 128 445.3 96 438.2C64 431 32 431 16 431L0 431Z" fill="#f449b6"></path><path d="M0 865L16 870.3C32 875.7 64 886.3 96 888.2C128 890 160 883 192 892C224 901 256 926 288 926C320 926 352 901 384 883C416 865 448 854 480 850.3C512 846.7 544 850.3 576 861.2C608 872 640 890 672 895.5C704 901 736 894 768 894C800 894 832 901 864 910C896 919 928 930 960 937.2C992 944.3 1024 947.7 1056 924.2C1088 900.7 1120 850.3 1152 832.3C1184 814.3 1216 828.7 1248 843.2C1280 857.7 1312 872.3 1344 877.8C1376 883.3 1408 879.7 1440 885C1472 890.3 1504 904.7 1536 915.5C1568 926.3 1600 933.7 1632 924.7C1664 915.7 1696 890.3 1728 893.8C1760 897.3 1792 929.7 1824 927.8C1856 926 1888 890 1904 872L1920 854L1920 744L1904 717C1888 690 1856 636 1824 623.5C1792 611 1760 640 1728 647.2C1696 654.3 1664 639.7 1632 645C1600 650.3 1568 675.7 1536 670.3C1504 665 1472 629 1440 611C1408 593 1376 593 1344 598.3C1312 603.7 1280 614.3 1248 614.3C1216 614.3 1184 603.7 1152 623.5C1120 643.3 1088 693.7 1056 729.7C1024 765.7 992 787.3 960 782C928 776.7 896 744.3 864 721C832 697.7 800 683.3 768 681.5C736 679.7 704 690.3 672 684.8C640 679.3 608 657.7 576 639.7C544 621.7 512 607.3 480 600.2C448 593 416 593 384 616.3C352 639.7 320 686.3 288 700.7C256 715 224 697 192 670C160 643 128 607 96 603.5C64 600 32 629 16 643.5L0 658Z" fill="#f958b1"></path><path d="M0 973L16 978.3C32 983.7 64 994.3 96 994.3C128 994.3 160 983.7 192 987.3C224 991 256 1009 288 1012.7C320 1016.3 352 1005.7 384 1000.3C416 995 448 995 480 1004C512 1013 544 1031 576 1029.2C608 1027.3 640 1005.7 672 993C704 980.3 736 976.7 768 985.7C800 994.7 832 1016.3 864 1029C896 1041.7 928 1045.3 960 1047.2C992 1049 1024 1049 1056 1047.2C1088 1045.3 1120 1041.7 1152 1034.3C1184 1027 1216 1016 1248 1017.8C1280 1019.7 1312 1034.3 1344 1038C1376 1041.7 1408 1034.3 1440 1023.5C1472 1012.7 1504 998.3 1536 998.3C1568 998.3 1600 1012.7 1632 1012.7C1664 1012.7 1696 998.3 1728 1002C1760 1005.7 1792 1027.3 1824 1030.8C1856 1034.3 1888 1019.7 1904 1012.3L1920 1005L1920 852L1904 870C1888 888 1856 924 1824 925.8C1792 927.7 1760 895.3 1728 891.8C1696 888.3 1664 913.7 1632 922.7C1600 931.7 1568 924.3 1536 913.5C1504 902.7 1472 888.3 1440 883C1408 877.7 1376 881.3 1344 875.8C1312 870.3 1280 855.7 1248 841.2C1216 826.7 1184 812.3 1152 830.3C1120 848.3 1088 898.7 1056 922.2C1024 945.7 992 942.3 960 935.2C928 928 896 917 864 908C832 899 800 892 768 892C736 892 704 899 672 893.5C640 888 608 870 576 859.2C544 848.3 512 844.7 480 848.3C448 852 416 863 384 881C352 899 320 924 288 924C256 924 224 899 192 890C160 881 128 888 96 886.2C64 884.3 32 873.7 16 868.3L0 863Z" fill="#fd67ae"></path><path d="M0 1081L16 1081C32 1081 64 1081 96 1081C128 1081 160 1081 192 1081C224 1081 256 1081 288 1081C320 1081 352 1081 384 1081C416 1081 448 1081 480 1081C512 1081 544 1081 576 1081C608 1081 640 1081 672 1081C704 1081 736 1081 768 1081C800 1081 832 1081 864 1081C896 1081 928 1081 960 1081C992 1081 1024 1081 1056 1081C1088 1081 1120 1081 1152 1081C1184 1081 1216 1081 1248 1081C1280 1081 1312 1081 1344 1081C1376 1081 1408 1081 1440 1081C1472 1081 1504 1081 1536 1081C1568 1081 1600 1081 1632 1081C1664 1081 1696 1081 1728 1081C1760 1081 1792 1081 1824 1081C1856 1081 1888 1081 1904 1081L1920 1081L1920 1003L1904 1010.3C1888 1017.7 1856 1032.3 1824 1028.8C1792 1025.3 1760 1003.7 1728 1000C1696 996.3 1664 1010.7 1632 1010.7C1600 1010.7 1568 996.3 1536 996.3C1504 996.3 1472 1010.7 1440 1021.5C1408 1032.3 1376 1039.7 1344 1036C1312 1032.3 1280 1017.7 1248 1015.8C1216 1014 1184 1025 1152 1032.3C1120 1039.7 1088 1043.3 1056 1045.2C1024 1047 992 1047 960 1045.2C928 1043.3 896 1039.7 864 1027C832 1014.3 800 992.7 768 983.7C736 974.7 704 978.3 672 991C640 1003.7 608 1025.3 576 1027.2C544 1029 512 1011 480 1002C448 993 416 993 384 998.3C352 1003.7 320 1014.3 288 1010.7C256 1007 224 989 192 985.3C160 981.7 128 992.3 96 992.3C64 992.3 32 981.7 16 976.3L0 971Z" fill="#ff75ac"></path></svg>