<svg id="visual" viewBox="0 0 1920 1080" width="1920" height="1080" xmlns="http://www.w3.org/2000/svg" xmlns:xlink="http://www.w3.org/1999/xlink" version="1.1"><path d="M0 77L29.2 75.2C58.3 73.3 116.7 69.7 174.8 87.7C233 105.7 291 145.3 349.2 156.2C407.3 167 465.7 149 523.8 140C582 131 640 131 698.2 123.7C756.3 116.3 814.7 101.7 872.8 99.8C931 98 989 109 1047.2 116.3C1105.3 123.7 1163.7 127.3 1221.8 132.7C1280 138 1338 145 1396.2 150.3C1454.3 155.7 1512.7 159.3 1570.8 148.5C1629 137.7 1687 112.3 1745.2 112.3C1803.3 112.3 1861.7 137.7 1890.8 150.3L1920 163L1920 0L1890.8 0C1861.7 0 1803.3 0 1745.2 0C1687 0 1629 0 1570.8 0C1512.7 0 1454.3 0 1396.2 0C1338 0 1280 0 1221.8 0C1163.7 0 1105.3 0 1047.2 0C989 0 931 0 872.8 0C814.7 0 756.3 0 698.2 0C640 0 582 0 523.8 0C465.7 0 407.3 0 349.2 0C291 0 233 0 174.8 0C116.7 0 58.3 0 29.2 0L0 0Z" fill="#4938c4"></path><path d="M0 131L29.2 123.7C58.3 116.3 116.7 101.7 174.8 117.8C233 134 291 181 349.2 197.3C407.3 213.7 465.7 199.3 523.8 193.8C582 188.3 640 191.7 698.2 180.8C756.3 170 814.7 145 872.8 141.5C931 138 989 156 1047.2 163.2C1105.3 170.3 1163.7 166.7 1221.8 173.8C1280 181 1338 199 1396.2 206.2C1454.3 213.3 1512.7 209.7 1570.8 193.5C1629 177.3 1687 148.7 1745.2 148.7C1803.3 148.7 1861.7 177.3 1890.8 191.7L1920 206L1920 161L1890.8 148.3C1861.7 135.7 1803.3 110.3 1745.2 110.3C1687 110.3 1629 135.7 1570.8 146.5C1512.7 157.3 1454.3 153.7 1396.2 148.3C1338 143 1280 136 1221.8 130.7C1163.7 125.3 1105.3 121.7 1047.2 114.3C989 107 931 96 872.8 97.8C814.7 99.7 756.3 114.3 698.2 121.7C640 129 582 129 523.8 138C465.7 147 407.3 165 349.2 154.2C291 143.3 233 103.7 174.8 85.7C116.7 67.7 58.3 71.3 29.2 73.2L0 75Z" fill="#5e37c5"></path><path d="M0 185L29.2 181.3C58.3 177.7 116.7 170.3 174.8 182.8C233 195.3 291 227.7 349.2 242C407.3 256.3 465.7 252.7 523.8 252.7C582 252.7 640 256.3 698.2 240.2C756.3 224 814.7 188 872.8 179C931 170 989 188 1047.2 197C1105.3 206 1163.7 206 1221.8 215C1280 224 1338 242 1396.2 251C1454.3 260 1512.7 260 1570.8 243.8C1629 227.7 1687 195.3 1745.2 197.2C1803.3 199 1861.7 235 1890.8 253L1920 271L1920 204L1890.8 189.7C1861.7 175.3 1803.3 146.7 1745.2 146.7C1687 146.7 1629 175.3 1570.8 191.5C1512.7 207.7 1454.3 211.3 1396.2 204.2C1338 197 1280 179 1221.8 171.8C1163.7 164.7 1105.3 168.3 1047.2 161.2C989 154 931 136 872.8 139.5C814.7 143 756.3 168 698.2 178.8C640 189.7 582 186.3 523.8 191.8C465.7 197.3 407.3 211.7 349.2 195.3C291 179 233 132 174.8 115.8C116.7 99.7 58.3 114.3 29.2 121.7L0 129Z" fill="#7036c6"></path><path d="M0 271L29.2 265.7C58.3 260.3 116.7 249.7 174.8 258.7C233 267.7 291 296.3 349.2 307C407.3 317.7 465.7 310.3 523.8 312.2C582 314 640 325 698.2 312.5C756.3 300 814.7 264 872.8 251.3C931 238.7 989 249.3 1047.2 256.5C1105.3 263.7 1163.7 267.3 1221.8 280C1280 292.7 1338 314.3 1396.2 318C1454.3 321.7 1512.7 307.3 1570.8 294.7C1629 282 1687 271 1745.2 281.7C1803.3 292.3 1861.7 324.7 1890.8 340.8L1920 357L1920 269L1890.8 251C1861.7 233 1803.3 197 1745.2 195.2C1687 193.3 1629 225.7 1570.8 241.8C1512.7 258 1454.3 258 1396.2 249C1338 240 1280 222 1221.8 213C1163.7 204 1105.3 204 1047.2 195C989 186 931 168 872.8 177C814.7 186 756.3 222 698.2 238.2C640 254.3 582 250.7 523.8 250.7C465.7 250.7 407.3 254.3 349.2 240C291 225.7 233 193.3 174.8 180.8C116.7 168.3 58.3 175.7 29.2 179.3L0 183Z" fill="#8034c7"></path><path d="M0 303L29.2 306.7C58.3 310.3 116.7 317.7 174.8 339.3C233 361 291 397 349.2 404.2C407.3 411.3 465.7 389.7 523.8 384.3C582 379 640 390 698.2 372C756.3 354 814.7 307 872.8 289C931 271 989 282 1047.2 292.8C1105.3 303.7 1163.7 314.3 1221.8 337.7C1280 361 1338 397 1396.2 400.7C1454.3 404.3 1512.7 375.7 1570.8 355.8C1629 336 1687 325 1745.2 335.7C1803.3 346.3 1861.7 378.7 1890.8 394.8L1920 411L1920 355L1890.8 338.8C1861.7 322.7 1803.3 290.3 1745.2 279.7C1687 269 1629 280 1570.8 292.7C1512.7 305.3 1454.3 319.7 1396.2 316C1338 312.3 1280 290.7 1221.8 278C1163.7 265.3 1105.3 261.7 1047.2 254.5C989 247.3 931 236.7 872.8 249.3C814.7 262 756.3 298 698.2 310.5C640 323 582 312 523.8 310.2C465.7 308.3 407.3 315.7 349.2 305C291 294.3 233 265.7 174.8 256.7C116.7 247.7 58.3 258.3 29.2 263.7L0 269Z" fill="#9033c7"></path><path d="M0 411L29.2 420C58.3 429 116.7 447 174.8 475.8C233 504.7 291 544.3 349.2 549.8C407.3 555.3 465.7 526.7 523.8 514.2C582 501.7 640 505.3 698.2 492.7C756.3 480 814.7 451 872.8 434.7C931 418.3 989 414.7 1047.2 412.8C1105.3 411 1163.7 411 1221.8 434.5C1280 458 1338 505 1396.2 512.3C1454.3 519.7 1512.7 487.3 1570.8 458.5C1629 429.7 1687 404.3 1745.2 413.3C1803.3 422.3 1861.7 465.7 1890.8 487.3L1920 509L1920 409L1890.8 392.8C1861.7 376.7 1803.3 344.3 1745.2 333.7C1687 323 1629 334 1570.8 353.8C1512.7 373.7 1454.3 402.3 1396.2 398.7C1338 395 1280 359 1221.8 335.7C1163.7 312.3 1105.3 301.7 1047.2 290.8C989 280 931 269 872.8 287C814.7 305 756.3 352 698.2 370C640 388 582 377 523.8 382.3C465.7 387.7 407.3 409.3 349.2 402.2C291 395 233 359 174.8 337.3C116.7 315.7 58.3 308.3 29.2 304.7L0 301Z" fill="#9e31c7"></path><path d="M0 487L29.2 490.7C58.3 494.3 116.7 501.7 174.8 521.5C233 541.3 291 573.7 349.2 582.7C407.3 591.7 465.7 577.3 523.8 570.2C582 563 640 563 698.2 552.2C756.3 541.3 814.7 519.7 872.8 505.2C931 490.7 989 483.3 1047.2 477.8C1105.3 472.3 1163.7 468.7 1221.8 484.8C1280 501 1338 537 1396.2 542.5C1454.3 548 1512.7 523 1570.8 497.8C1629 472.7 1687 447.3 1745.2 456.3C1803.3 465.3 1861.7 508.7 1890.8 530.3L1920 552L1920 507L1890.8 485.3C1861.7 463.7 1803.3 420.3 1745.2 411.3C1687 402.3 1629 427.7 1570.8 456.5C1512.7 485.3 1454.3 517.7 1396.2 510.3C1338 503 1280 456 1221.8 432.5C1163.7 409 1105.3 409 1047.2 410.8C989 412.7 931 416.3 872.8 432.7C814.7 449 756.3 478 698.2 490.7C640 503.3 582 499.7 523.8 512.2C465.7 524.7 407.3 553.3 349.2 547.8C291 542.3 233 502.7 174.8 473.8C116.7 445 58.3 427 29.2 418L0 409Z" fill="#ac2fc7"></path><path d="M0 617L29.2 647.5C58.3 678 116.7 739 174.8 771.3C233 803.7 291 807.3 349.2 796.5C407.3 785.7 465.7 760.3 523.8 742.3C582 724.3 640 713.7 698.2 715.5C756.3 717.3 814.7 731.7 872.8 738.8C931 746 989 746 1047.2 751.5C1105.3 757 1163.7 768 1221.8 766.2C1280 764.3 1338 749.7 1396.2 740.7C1454.3 731.7 1512.7 728.3 1570.8 705C1629 681.7 1687 638.3 1745.2 649C1803.3 659.7 1861.7 724.3 1890.8 756.7L1920 789L1920 550L1890.8 528.3C1861.7 506.7 1803.3 463.3 1745.2 454.3C1687 445.3 1629 470.7 1570.8 495.8C1512.7 521 1454.3 546 1396.2 540.5C1338 535 1280 499 1221.8 482.8C1163.7 466.7 1105.3 470.3 1047.2 475.8C989 481.3 931 488.7 872.8 503.2C814.7 517.7 756.3 539.3 698.2 550.2C640 561 582 561 523.8 568.2C465.7 575.3 407.3 589.7 349.2 580.7C291 571.7 233 539.3 174.8 519.5C116.7 499.7 58.3 492.3 29.2 488.7L0 485Z" fill="#b92dc6"></path><path d="M0 735L29.2 760.3C58.3 785.7 116.7 836.3 174.8 856.2C233 876 291 865 349.2 847C407.3 829 465.7 804 523.8 784.2C582 764.3 640 749.7 698.2 755C756.3 760.3 814.7 785.7 872.8 796.5C931 807.3 989 803.7 1047.2 812.7C1105.3 821.7 1163.7 843.3 1221.8 848.8C1280 854.3 1338 843.7 1396.2 832.8C1454.3 822 1512.7 811 1570.8 787.5C1629 764 1687 728 1745.2 740.7C1803.3 753.3 1861.7 814.7 1890.8 845.3L1920 876L1920 787L1890.8 754.7C1861.7 722.3 1803.3 657.7 1745.2 647C1687 636.3 1629 679.7 1570.8 703C1512.7 726.3 1454.3 729.7 1396.2 738.7C1338 747.7 1280 762.3 1221.8 764.2C1163.7 766 1105.3 755 1047.2 749.5C989 744 931 744 872.8 736.8C814.7 729.7 756.3 715.3 698.2 713.5C640 711.7 582 722.3 523.8 740.3C465.7 758.3 407.3 783.7 349.2 794.5C291 805.3 233 801.7 174.8 769.3C116.7 737 58.3 676 29.2 645.5L0 615Z" fill="#c62bc5"></path><path d="M0 1016L29.2 1017.8C58.3 1019.7 116.7 1023.3 174.8 1025.2C233 1027 291 1027 349.2 1023.3C407.3 1019.7 465.7 1012.3 523.8 1005.2C582 998 640 991 698.2 991C756.3 991 814.7 998 872.8 1005.2C931 1012.3 989 1019.7 1047.2 1021.5C1105.3 1023.3 1163.7 1019.7 1221.8 1014.3C1280 1009 1338 1002 1396.2 996.7C1454.3 991.3 1512.7 987.7 1570.8 989.3C1629 991 1687 998 1745.2 998C1803.3 998 1861.7 991 1890.8 987.5L1920 984L1920 874L1890.8 843.3C1861.7 812.7 1803.3 751.3 1745.2 738.7C1687 726 1629 762 1570.8 785.5C1512.7 809 1454.3 820 1396.2 830.8C1338 841.7 1280 852.3 1221.8 846.8C1163.7 841.3 1105.3 819.7 1047.2 810.7C989 801.7 931 805.3 872.8 794.5C814.7 783.7 756.3 758.3 698.2 753C640 747.7 582 762.3 523.8 782.2C465.7 802 407.3 827 349.2 845C291 863 233 874 174.8 854.2C116.7 834.3 58.3 783.7 29.2 758.3L0 733Z" fill="#d229c4"></path><path d="M0 1059L29.2 1059C58.3 1059 116.7 1059 174.8 1057.3C233 1055.7 291 1052.3 349.2 1050.7C407.3 1049 465.7 1049 523.8 1045.3C582 1041.7 640 1034.3 698.2 1034.3C756.3 1034.3 814.7 1041.7 872.8 1047C931 1052.3 989 1055.7 1047.2 1053.8C1105.3 1052 1163.7 1045 1221.8 1039.7C1280 1034.3 1338 1030.7 1396.2 1030.7C1454.3 1030.7 1512.7 1034.3 1570.8 1039.7C1629 1045 1687 1052 1745.2 1052C1803.3 1052 1861.7 1045 1890.8 1041.5L1920 1038L1920 982L1890.8 985.5C1861.7 989 1803.3 996 1745.2 996C1687 996 1629 989 1570.8 987.3C1512.7 985.7 1454.3 989.3 1396.2 994.7C1338 1000 1280 1007 1221.8 1012.3C1163.7 1017.7 1105.3 1021.3 1047.2 1019.5C989 1017.7 931 1010.3 872.8 1003.2C814.7 996 756.3 989 698.2 989C640 989 582 996 523.8 1003.2C465.7 1010.3 407.3 1017.7 349.2 1021.3C291 1025 233 1025 174.8 1023.2C116.7 1021.3 58.3 1017.7 29.2 1015.8L0 1014Z" fill="#de28c2"></path><path d="M0 1081L29.2 1081C58.3 1081 116.7 1081 174.8 1081C233 1081 291 1081 349.2 1081C407.3 1081 465.7 1081 523.8 1081C582 1081 640 1081 698.2 1081C756.3 1081 814.7 1081 872.8 1081C931 1081 989 1081 1047.2 1081C1105.3 1081 1163.7 1081 1221.8 1081C1280 1081 1338 1081 1396.2 1081C1454.3 1081 1512.7 1081 1570.8 1081C1629 1081 1687 1081 1745.2 1081C1803.3 1081 1861.7 1081 1890.8 1081L1920 1081L1920 1036L1890.8 1039.5C1861.7 1043 1803.3 1050 1745.2 1050C1687 1050 1629 1043 1570.8 1037.7C1512.7 1032.3 1454.3 1028.7 1396.2 1028.7C1338 1028.7 1280 1032.3 1221.8 1037.7C1163.7 1043 1105.3 1050 1047.2 1051.8C989 1053.7 931 1050.3 872.8 1045C814.7 1039.7 756.3 1032.3 698.2 1032.3C640 1032.3 582 1039.7 523.8 1043.3C465.7 1047 407.3 1047 349.2 1048.7C291 1050.3 233 1053.7 174.8 1055.3C116.7 1057 58.3 1057 29.2 1057L0 1057Z" fill="#e927c0"></path></svg>